<svg width="170" height="158" viewBox="0 0 170 158" fill="none" xmlns="http://www.w3.org/2000/svg">
<path d="M137.053 80.2891C133.446 71.8575 135.79 59.3125 136.814 54.8203C132.82 59.2796 128.655 63.4267 124.338 67.2538C130.494 96.8681 122.001 127.413 122.001 127.413C122.001 127.413 122.612 120.373 120.188 101.484C118.049 84.8158 121.826 72.4013 123.461 68.0436C119.38 71.6056 115.166 74.8787 110.828 77.8639C109.26 78.9467 107.667 79.9777 106.067 80.9785C103.569 89.8233 110.139 102.734 110.904 116.076C111.476 126.129 99.1523 138.329 99.1523 138.329C99.1523 138.329 109.028 126.321 103.691 111.714C99.4244 100.05 103.963 86.1631 105.961 81.038C100.862 84.2109 95.6005 86.9836 90.1955 89.3577C90.3949 92.1528 90.9834 101.496 90.6039 110.879C90.1586 121.927 84.5751 146.51 84.5751 146.51C84.5751 146.51 82.4137 136.807 82.2706 122.83C82.146 111.543 88.1767 93.9572 89.7561 89.5451C85.2652 91.4885 80.6797 93.1566 76.0005 94.5394C75.8857 97.3651 75.4498 106.921 74.4865 116.854C73.3238 128.696 61.9386 157.525 61.9386 157.525C61.9386 157.525 62.7733 148.747 64.3688 129.947C65.7365 113.785 73.346 98.6362 75.4634 94.698C71.2407 95.9247 66.9496 96.9179 62.5891 97.6873C59.9057 99.9533 51.5046 105.356 31.6396 106.325C8.28317 107.472 0.683059 106.059 0.683059 106.059C0.683059 106.059 39.8395 89.9156 61.9685 96.1682C65.9188 95.49 69.7461 94.6226 73.438 93.5947C69.0898 91.6674 53.5751 84.3858 39.8042 72.9739C23.601 59.5521 19.2615 54.9672 19.2615 54.9672C19.2615 54.9672 50.5131 71.0131 60.4672 79.9728C68.3093 87.0406 72.5971 91.7492 74.0557 93.4335C79.1008 92.0049 83.9027 90.2775 88.476 88.3119C84.2601 86.3669 68.3498 78.4861 60.6951 66.7511C51.8201 53.146 39.4073 48.1232 39.4073 48.1232C39.4073 48.1232 52.3763 50.0046 66.88 65.9105C78.9171 79.1016 86.5609 86.1414 88.8212 88.1654C94.8097 85.5676 100.393 82.5772 105.581 79.3038C101.761 77.9581 90.1318 73.2535 81.2859 63.0803C70.5548 50.7393 53.8521 40.0687 53.8521 40.0687C53.8521 40.0687 77.8158 48.3857 92.3962 62.0849C102.917 71.9658 105.78 76.7623 106.565 78.6718C112.443 74.8978 117.801 70.78 122.659 66.5279C119.242 65.8118 108.081 62.8497 95.6326 52.8626C80.6621 40.8574 69.1043 31.5442 69.1043 31.5442C69.1043 31.5442 112.363 50.3032 123.25 66.0085C128.058 61.7616 132.366 57.3803 136.195 53.0741C133.16 52.7782 123.916 51.2257 115.025 42.9162C104.187 32.789 98.0457 30.491 89.5195 28.4603C89.5195 28.4603 107.739 29.7224 116.083 36.4702C125.846 44.365 130.826 51.2218 136.331 52.9086C138.881 50.0374 141.216 47.1963 143.343 44.4448C160.406 22.4177 167.945 1.59947 168.024 1.39913C168.174 0.977957 168.636 0.763054 169.064 0.910697C169.123 0.925931 169.17 0.959854 169.218 0.98398C169.531 1.18045 169.685 1.57 169.561 1.9342C169.491 2.14524 161.872 23.1638 144.68 45.3867C142.348 48.406 139.936 51.3095 137.465 54.0988C138.356 57.7573 141.67 71.1233 144.432 79.7746C147.651 89.8708 136.808 113.146 136.808 113.146C136.808 113.146 141.505 90.7248 137.053 80.2891Z" fill="#FCF4DF"/>
</svg>
