<svg width="146" height="144" viewBox="0 0 146 144" fill="none" xmlns="http://www.w3.org/2000/svg">
<path d="M100.169 41.1316C97.5331 43.7766 94.9096 46.4223 92.2735 49.0673C76.0784 42.9249 59.8758 36.7761 43.6807 30.6338C43.4007 30.9698 43.1283 31.3122 42.8559 31.6547C59.0106 37.783 75.1653 43.9114 91.3124 50.0333C88.8277 52.535 86.3303 55.036 83.8455 57.5377C68.3121 51.8737 52.8869 45.618 37.6177 38.7611C37.3832 39.1054 37.1487 39.4497 36.9192 39.7882C52.1 46.6107 67.4369 52.862 82.8743 58.5153C80.488 60.9193 78.089 63.3226 75.7026 65.7265C61.0904 59.8059 46.4706 53.8789 31.8584 47.9583C31.6466 48.3218 31.4399 48.6795 31.2357 49.0494C45.7393 54.9285 60.2429 60.8077 74.7465 66.6868C72.234 69.2052 69.7341 71.7242 67.2216 74.2426C53.3727 69.7398 39.5891 64.7398 25.8961 59.2438C25.7171 59.6149 25.5331 59.9918 25.3541 60.3629C38.8932 65.8092 52.5253 70.7717 66.2176 75.2428C63.6395 77.8363 61.0564 80.4357 58.4707 83.0228C46.0483 78.8307 33.6962 74.1656 21.4473 69.0354C21.2885 69.4135 21.1247 69.7974 20.9659 70.1755C33.0457 75.2433 45.2311 79.858 57.4768 84.0114C55.373 86.1217 53.2767 88.2383 51.1729 90.3485C39.8995 86.9659 28.6865 83.122 17.5438 78.8354C17.4002 79.2263 17.2565 79.6173 17.1053 80.0018C28.0536 84.2247 39.0874 88.0176 50.1588 91.3602C47.5958 93.9364 45.0329 96.5127 42.4699 99.0889C32.7752 97.0191 23.1025 94.0039 13.5882 90.098C13.4572 90.4895 13.3338 90.8875 13.2028 91.279C22.4949 95.1077 31.9252 98.069 41.4003 100.164C40.5275 101.044 39.6598 101.918 38.7794 102.792C38.5446 102.835 38.3504 102.982 38.3253 103.252C37.6946 103.885 37.059 104.523 36.4283 105.155C27.9785 103.846 19.5127 101.136 11.3666 97.1403C11.2432 97.5382 11.1323 97.9368 11.0089 98.3347C18.9152 102.198 27.1084 104.888 35.2957 106.288C33.3734 108.22 31.4563 110.146 29.534 112.079C22.5962 110.499 15.6858 108.45 8.83309 105.958C8.72482 106.369 8.61402 106.767 8.49818 107.172C15.116 109.586 21.7765 111.574 28.4746 113.142C26.686 114.936 24.8975 116.73 23.1216 118.525C18.5439 116.819 13.9535 115.112 9.3758 113.406C8.61832 113.128 7.85831 112.838 7.10083 112.56C6.9976 112.965 6.89438 113.37 6.7962 113.769C7.9198 114.185 9.0409 114.62 10.1519 115.036C14.1539 116.527 18.1484 118.011 22.1504 119.503C20.6419 121.021 19.1334 122.539 17.6249 124.057C13.4415 123.166 9.26557 122.101 5.10216 120.885C5.00147 121.302 4.9134 121.72 4.8228 122.126C8.72869 123.274 12.6294 124.278 16.5503 125.138C14.7819 126.909 13.0262 128.681 11.2579 130.451C8.66497 129.819 6.07956 129.072 3.50419 128.223C3.41612 128.641 3.32806 129.059 3.25008 129.465C5.5654 130.235 7.88569 130.908 10.2085 131.504C9.14392 132.573 8.07939 133.643 7.01485 134.712C5.48992 134.349 3.95742 133.979 2.42744 133.621C2.34191 134.051 2.26646 134.469 2.18848 134.875C3.44327 135.172 4.70058 135.48 5.95537 135.776C4.36361 137.375 2.77689 138.968 1.18514 140.566C0.873488 142.583 0.727825 143.685 0.727825 143.685C0.727825 143.685 1.83839 143.498 3.85505 143.102C5.62844 141.325 7.39425 139.542 9.17268 137.76C9.19128 139.141 9.33107 140.535 9.5592 141.932C9.99584 141.839 10.4451 141.747 10.9095 141.636C10.6407 139.833 10.5486 138.038 10.6433 136.27C11.8845 135.028 13.113 133.785 14.3541 132.544C14.3938 135.228 14.691 137.95 15.238 140.672C15.6722 140.566 16.1138 140.467 16.5682 140.369C16.0134 137.49 15.7464 134.613 15.7899 131.788C15.7948 131.601 15.7215 131.428 15.6179 131.291C17.8908 129.002 20.1712 126.719 22.4441 124.431C22.8713 129.1 23.4778 133.79 24.2585 138.506C24.6976 138.395 25.1494 138.284 25.5986 138.162C24.7774 133.13 24.1555 128.125 23.7356 123.131C25.7814 121.072 27.8273 119.013 29.8756 116.967C30.5767 123.404 31.4444 129.861 32.4711 136.332C32.9203 136.209 33.357 136.086 33.8112 135.957C32.7338 129.182 31.8407 122.422 31.1394 115.684C33.6519 113.165 36.1569 110.641 38.6643 108.128C39.2835 116.605 40.2586 125.141 41.5669 133.718C42.0137 133.583 42.4604 133.448 42.9071 133.313C41.5657 124.427 40.5904 115.589 39.9937 106.8C41.6536 105.138 43.3009 103.476 44.9557 101.82C47.2946 111.358 49.6386 120.889 51.9775 130.427C52.404 130.285 52.8305 130.143 53.2621 129.995C50.8624 120.225 48.4703 110.462 46.0656 100.699C49.2693 97.4786 52.4781 94.2525 55.6818 91.0323C56.6037 103.069 58.2426 115.219 60.5682 127.426C61.0048 127.273 61.4389 127.107 61.8805 126.948C59.527 114.455 57.8929 102.028 56.9985 89.7037C59.9399 86.754 62.8737 83.7979 65.81 80.854C68.8862 94.4787 71.9625 108.103 75.0463 121.735C75.4703 121.55 75.8892 121.372 76.3132 121.187C73.1888 107.361 70.0569 93.5289 66.9325 79.7029C68.0551 78.5819 69.17 77.4545 70.2926 76.3335C71.6573 74.965 73.0221 73.5965 74.3742 72.2275C78.0672 87.1664 81.7578 102.093 85.4509 117.032C85.8647 116.829 86.2735 116.632 86.6874 116.429C82.9538 101.325 79.2202 86.2217 75.4841 71.1059C77.5879 68.9956 79.6842 66.879 81.7881 64.7688C87.0717 80.0565 92.3579 95.3564 97.6415 110.644C98.0326 110.422 98.4237 110.2 98.8073 109.971C93.5085 94.6407 88.2097 79.31 82.9108 63.9794C82.8805 63.8935 82.8401 63.8192 82.7895 63.7565C85.7914 60.7374 88.7933 57.7183 91.8028 54.7056C97.0646 71.3005 102.331 87.8897 107.593 104.485C107.977 104.226 108.36 103.967 108.736 103.702C103.444 87.0214 98.1494 70.3284 92.8572 53.6476C95.1048 51.3876 97.3525 49.1277 99.6051 46.8619C106.482 62.812 113.356 78.7499 120.233 94.7C120.576 94.3972 120.917 94.0821 121.253 93.7729C114.366 77.8042 107.479 61.8356 100.599 45.8733C102.99 43.4636 105.389 41.0603 107.781 38.6505C116.013 53.6658 123.437 68.913 130.031 84.3127C130.344 83.924 130.649 83.5289 130.949 83.1395C124.353 67.8181 116.928 52.6613 108.712 37.7192C112.597 33.8086 116.484 29.9102 120.369 25.9996C127.766 39.4368 134.556 53.0433 140.727 66.7705C140.969 66.2216 141.193 65.6778 141.418 65.1341C135.35 51.7255 128.682 38.4323 121.436 25.3039C121.388 25.2232 121.337 25.1605 121.279 25.0913C122.911 23.4465 124.551 21.808 126.183 20.1632C132.539 30.7522 138.882 41.3406 145.238 51.9296C145.354 51.2841 145.459 50.6502 145.55 50.0034C139.401 39.7501 133.253 29.4967 127.096 19.237C128.713 17.6095 130.33 15.982 131.955 14.3609C131.078 13.5104 130.172 12.6945 129.235 11.9133C128.786 12.3678 128.342 12.8164 127.885 13.2644C117.782 8.96215 107.687 4.66627 97.5845 0.363983C96.7136 0.412015 95.8428 0.490192 94.9846 0.59913C105.635 5.13308 116.293 9.67344 126.944 14.2074C125.496 15.6562 124.051 17.1172 122.603 18.566C109.975 13.2967 97.3474 8.02742 84.7172 2.74594C84.0988 2.92685 83.4755 3.11353 82.8546 3.3124C95.7903 8.71125 108.726 14.1101 121.657 19.5147C119.414 21.7689 117.171 24.0231 114.929 26.2773C100.657 20.0718 86.3807 13.8721 72.1091 7.66668C71.6397 7.90307 71.1653 8.14525 70.6858 8.39321C85.1216 14.667 99.5573 20.9407 113.993 27.2145C112.041 29.1813 110.075 31.1476 108.123 33.1144C108.073 33.1723 108.014 33.2237 107.956 33.2751C92.6021 27.3305 77.3912 20.6934 62.3842 13.385C61.9957 13.6494 61.6147 13.9203 61.2261 14.1847C76.2937 21.5443 91.5728 28.239 106.993 34.229C106.746 34.4823 106.486 34.7349 106.239 34.9881C106.165 35.0268 106.115 35.0846 106.085 35.1495C104.448 36.8001 102.803 38.4443 101.166 40.0949C84.5268 34.7931 67.9784 28.7843 51.5659 22.0766C51.2379 22.3922 50.91 22.7079 50.582 23.0235C66.9921 29.7793 83.538 35.8061 100.169 41.1316Z" fill="#97C9CE"/>
</svg>
