<svg width="147" height="123" viewBox="0 0 147 123" fill="none" xmlns="http://www.w3.org/2000/svg">
<path d="M36.5745 37.4703C39.4269 39.707 42.2727 41.945 45.1251 44.1816C42.6167 57.2464 40.1017 70.3125 37.5947 83.3838C37.9488 83.6226 38.303 83.8614 38.6622 84.0923C41.1649 71.0632 43.6676 58.0341 46.1704 45.0051C48.8623 47.1187 51.5623 49.2373 54.2542 51.3509C52.055 63.8868 49.2962 76.3184 45.9821 88.6035C46.3338 88.8016 46.6804 89.0077 47.032 89.2058C50.3414 76.9906 53.0984 64.6419 55.3076 52.1794C57.8974 54.2122 60.4872 56.2449 63.077 58.2777C60.4736 70.056 57.8687 81.8278 55.2652 93.6062C55.6271 93.7883 55.989 93.9704 56.3575 94.151C58.9409 82.4665 61.5293 70.774 64.1127 59.0895C66.829 61.2184 69.5401 63.3552 72.2564 65.4841C70.7837 76.6774 68.8511 87.8064 66.4511 98.8384C66.8217 98.9979 67.1856 99.1589 67.5547 99.3119C69.9341 88.4014 71.8608 77.3975 73.3342 66.3279C76.1282 68.5223 78.9222 70.7167 81.7228 72.9096C80.2611 82.9447 78.366 92.9096 76.0366 102.77C76.4042 102.917 76.7768 103.055 77.1444 103.202C79.4481 93.4704 81.3336 83.6452 82.7924 73.7484C85.0679 75.5336 87.3448 77.3253 89.6202 79.1105C88.6702 88.2284 87.3046 97.293 85.5239 106.277C85.9017 106.407 86.2729 106.539 86.6507 106.669C88.4101 97.8349 89.7641 88.9311 90.7158 79.9711C93.492 82.1488 96.2682 84.3264 99.0444 86.504C98.982 94.3747 98.0673 102.198 96.3225 109.86C96.6973 109.977 97.0721 110.095 97.4535 110.21C99.1632 102.729 100.08 95.097 100.207 87.412C101.15 88.1546 102.099 88.8957 103.043 89.6384C103.123 89.8341 103.291 89.9899 103.535 90.0257C104.223 90.563 104.903 91.1018 105.59 91.6391C105.979 98.5096 105.117 105.358 103.045 111.901C103.425 112.011 103.798 112.122 104.178 112.231C106.177 105.883 107.07 99.261 106.814 92.6023C108.895 94.2376 110.974 95.8662 113.055 97.5015C112.921 103.131 112.367 108.722 111.397 114.253C111.782 114.354 112.16 114.457 112.545 114.559C113.484 109.22 114.033 103.823 114.201 98.3992C116.136 99.915 118.066 101.439 120.001 102.955C119.318 106.655 118.639 110.347 117.956 114.047C117.846 114.655 117.724 115.274 117.614 115.883C117.998 115.977 118.375 116.074 118.751 116.17C118.917 115.26 119.099 114.36 119.268 113.463C119.865 110.236 120.457 107.01 121.055 103.783C122.693 105.068 124.323 106.348 125.962 107.633C125.931 111.025 125.759 114.413 125.432 117.787C125.822 117.881 126.21 117.967 126.592 118.056C126.901 114.899 127.08 111.729 127.127 108.554C129.038 110.055 130.947 111.549 132.851 113.051C132.759 115.155 132.574 117.246 132.282 119.326C132.677 119.412 133.064 119.492 133.445 119.574C133.703 117.708 133.887 115.823 133.987 113.937C135.141 114.84 136.289 115.744 137.443 116.647C137.395 117.889 137.354 119.129 137.306 120.364C137.707 120.448 138.093 120.522 138.472 120.597C138.508 119.578 138.544 118.559 138.582 117.546C140.305 118.895 142.021 120.245 143.745 121.601C145.595 121.932 146.605 122.089 146.605 122.089C146.605 122.089 146.233 121.173 145.509 119.508C143.59 118.003 141.671 116.497 139.752 114.991C140.982 115.017 142.204 114.949 143.416 114.807C143.249 114.445 143.081 114.076 142.909 113.694C141.346 113.851 139.759 113.875 138.157 113.745C136.817 112.697 135.482 111.641 134.141 110.594C136.539 110.646 138.909 110.491 141.252 110.128C141.085 109.766 140.912 109.405 140.735 109.031C138.26 109.395 135.737 109.522 133.206 109.402C133.036 109.391 132.903 109.448 132.798 109.533C130.334 107.596 127.873 105.666 125.409 103.73C129.507 103.526 133.591 103.174 137.659 102.688C137.477 102.322 137.294 101.949 137.104 101.578C132.757 102.091 128.388 102.443 124.009 102.633C121.794 100.897 119.577 99.1537 117.361 97.4173C122.986 97.0508 128.605 96.541 134.201 95.8987C134.011 95.5276 133.816 95.1644 133.618 94.7882C127.757 95.4543 121.875 95.9734 115.979 96.3376C113.262 94.2087 110.544 92.0733 107.828 89.9444C115.297 89.7034 122.748 89.1771 130.171 88.3751C129.968 88.0068 129.765 87.6386 129.56 87.2638C121.864 88.0846 114.132 88.6034 106.387 88.8225C104.596 87.4195 102.804 86.0099 101.013 84.607C109.11 82.9897 117.207 81.3725 125.304 79.7553C125.098 79.4016 124.891 79.0479 124.683 78.6876C116.392 80.3404 108.103 81.9997 99.8057 83.6539C96.3327 80.9273 92.8596 78.2007 89.3865 75.4741C99.9864 75.09 110.552 74.1355 121.036 72.6142C120.813 72.2503 120.591 71.8929 120.368 71.529C109.631 73.0648 98.813 74.0126 87.9603 74.3558C84.7773 71.8615 81.6009 69.3657 78.4163 66.8648C90.0336 64.7715 101.658 62.6767 113.275 60.5834C113.034 60.2304 112.799 59.876 112.559 59.5296C100.768 61.654 88.9771 63.7785 77.1876 65.9095C75.9737 64.9579 74.7598 64.0064 73.5526 63.0533C72.0761 61.8979 70.6047 60.7344 69.1282 59.579C81.8011 57.0272 94.4807 54.474 107.154 51.9222C106.901 51.5786 106.646 51.2286 106.386 50.8865C93.5677 53.4702 80.741 56.0488 67.9224 58.6325C65.647 56.8473 63.3716 55.0621 61.0962 53.2769C73.7978 49.4322 86.4994 45.5876 99.1994 41.7364C98.9295 41.4103 98.6596 41.0843 98.3831 40.7596C85.6499 44.618 72.9152 48.4699 60.182 52.3284C60.1107 52.3509 60.0556 52.3836 60.0006 52.4163C56.748 49.8615 53.4969 47.3133 50.2442 44.7585C64.1126 40.9676 77.9825 37.1833 91.8509 33.3924C91.5479 33.0736 91.2433 32.7482 90.9403 32.4294C76.9925 36.2377 63.0447 40.046 49.0984 43.8608C46.661 41.946 44.225 40.0377 41.7876 38.1229C54.7779 32.9972 67.7733 27.8636 80.7636 22.7379C80.4254 22.4474 80.0887 22.1635 79.7454 21.881C66.7367 27.0176 53.72 32.1491 40.7113 37.2856C38.12 35.2463 35.5236 33.215 32.9322 31.1757C44.846 24.9101 57.1082 19.3111 69.6608 14.3983C69.2513 14.1304 68.8499 13.8675 68.4435 13.6126C55.9616 18.5305 43.7686 24.1281 31.924 30.3923C27.7135 27.0913 23.508 23.7822 19.2975 20.4812C29.9512 14.8427 40.8692 9.71735 52.0089 5.10066C51.473 4.88791 50.9468 4.68682 50.414 4.48717C39.5361 9.03272 28.8768 14.0738 18.4743 19.5953C18.4126 19.6295 18.3591 19.6687 18.3152 19.7196C16.5421 18.3334 14.7741 16.9391 13.0009 15.5529C21.3011 10.6851 29.6027 5.82381 37.8962 0.957442C37.299 0.840704 36.7049 0.737062 36.1189 0.638518C28.0822 5.35224 20.0456 10.066 12.0075 14.7731C10.2572 13.3956 8.50038 12.0196 6.75166 10.6487C6.15911 11.3359 5.59548 12.058 5.06286 12.794C5.54739 13.1762 6.03193 13.5585 6.51646 13.9407C4.53282 22.0744 2.54918 30.208 0.564018 38.3351C0.763254 39.0482 0.997097 39.7606 1.25231 40.4752C3.34902 31.8971 5.43911 23.3204 7.53432 14.7357C9.09815 15.9684 10.6671 17.193 12.2309 18.4256C9.84066 28.5954 7.45854 38.7704 5.06829 48.9402C5.33927 49.4518 5.62501 49.9671 5.91736 50.4809C8.36217 40.0652 10.8055 29.6429 13.2569 19.2257C15.6862 21.1354 18.114 23.0386 20.5433 24.9483C17.6231 36.4384 14.7094 47.927 11.7891 59.417C12.0889 59.8123 12.3887 60.2075 12.7032 60.6064C15.6559 48.9854 18.6019 37.3658 21.5561 25.7514C23.6776 27.4121 25.794 29.0808 27.9156 30.7415C27.9755 30.7903 28.0339 30.8325 28.0938 30.8813C25.6095 43.2665 22.4726 55.5058 18.7021 67.5607C19.0066 67.8861 19.3178 68.21 19.6355 68.5325C23.4433 56.4282 26.6094 44.1343 29.131 31.6996C29.4032 31.9152 29.6754 32.1307 29.9462 32.3396C29.9944 32.3978 30.0543 32.4466 30.1163 32.4743C31.8909 33.8671 33.6655 35.2599 35.4417 36.6592C33.7669 50.1122 31.4369 63.468 28.4721 76.6947C28.8139 76.9706 29.1506 77.2546 29.499 77.5291C32.5321 64.2667 34.8702 50.916 36.5745 37.4703Z" fill="#2F8C91"/>
</svg>
