<svg width="150" height="145" viewBox="0 0 150 145" fill="none" xmlns="http://www.w3.org/2000/svg">
<path d="M41.4061 74.3352C41.425 74.476 41.4581 74.6164 41.4838 74.75C41.4916 74.7709 41.4853 74.7924 41.4931 74.8133C41.5188 74.9469 41.5446 75.0804 41.5772 75.2067C41.5777 75.2208 41.5854 75.2418 41.5859 75.2559C41.619 75.3963 41.6448 75.5299 41.6847 75.6629C41.6856 75.6912 41.7007 75.719 41.7017 75.7472C41.7416 75.8803 41.7673 76.0139 41.8072 76.1469C41.815 76.1679 41.816 76.1962 41.8238 76.2171C41.8637 76.3502 41.9036 76.4833 41.9435 76.6164L41.9508 76.6232C41.9907 76.7563 42.0379 76.8961 42.0846 77.0219C42.0924 77.0429 42.1002 77.0638 42.108 77.0848C42.1547 77.2106 42.2014 77.3363 42.2481 77.4621C42.2559 77.4831 42.2637 77.504 42.2788 77.5318C42.3255 77.6576 42.3796 77.7902 42.4263 77.9159C42.4336 77.9227 42.4268 77.9301 42.4341 77.9369C42.4808 78.0627 42.5343 78.1811 42.5879 78.2996C42.5957 78.3205 42.603 78.3274 42.6108 78.3483C42.6643 78.4668 42.7179 78.5852 42.7787 78.7105C42.7865 78.7315 42.7943 78.7524 42.8021 78.7734C42.8556 78.8919 42.9165 79.0171 42.9769 79.1283C42.9842 79.1351 42.9847 79.1493 42.9993 79.1629C43.0528 79.2814 43.1205 79.3993 43.1809 79.5105C43.1882 79.5173 43.1814 79.5246 43.1887 79.5315C43.2491 79.6426 43.3168 79.7606 43.3771 79.8717C43.3849 79.8927 43.3995 79.9063 43.4 79.9205C43.4604 80.0316 43.5276 80.1355 43.588 80.2466C43.5953 80.2535 43.6031 80.2744 43.6104 80.2812C43.7453 80.5031 43.887 80.7176 44.0287 80.9321C44.036 80.9389 44.0438 80.9599 44.0511 80.9667C44.1183 81.0705 44.1923 81.1671 44.2664 81.2636C44.2737 81.2704 44.2883 81.2841 44.2888 81.2982C44.4373 81.5054 44.5922 81.6912 44.7471 81.877C44.7544 81.8838 44.7544 81.8838 44.7617 81.8906C44.8426 81.9799 44.9093 82.0696 44.9902 82.1588C44.9975 82.1656 45.0048 82.1724 45.0121 82.1793C45.0929 82.2685 45.1665 82.3509 45.2473 82.4401C45.4086 82.6045 45.5698 82.7688 45.7306 82.919C45.7379 82.9258 45.7452 82.9326 45.7452 82.9326C45.8256 83.0077 45.9128 83.0755 45.9858 83.1438L45.9932 83.1506C46.1607 83.2935 46.3205 83.4154 46.4945 83.5369L46.5018 83.5437C46.5817 83.6046 46.6684 83.6583 46.7478 83.7051L46.7551 83.712C47.008 83.8661 47.2531 83.9993 47.5113 84.1037L47.5186 84.1105C47.7696 84.2081 48.0127 84.2848 48.2549 84.3331L48.2622 84.34C48.3407 84.3585 48.4187 84.3629 48.504 84.3742C48.6672 84.3899 48.8159 84.3919 48.9782 84.3793C49.0557 84.3696 49.1263 84.3672 49.2033 84.3434C49.2033 84.3434 49.2033 84.3434 49.2102 84.336C50.2225 84.146 51.0637 83.2896 51.5509 81.5963C53.7923 73.8506 48.0816 65.4908 45.7886 62.5547C47.2914 63.0555 48.7932 63.5281 50.3087 63.986C51.3452 64.2974 52.3812 64.5948 53.4172 64.8921L54.8674 65.3027C58.7102 66.3749 62.5658 67.4042 66.3891 68.5266C66.3555 68.5773 66.3218 68.6279 66.2809 68.6718C66.1794 68.8096 66.0848 68.9402 65.9834 69.0781C65.9224 69.158 65.8756 69.2374 65.8146 69.3173C65.7268 69.4406 65.6532 69.5633 65.5654 69.6866C65.5117 69.7733 65.4581 69.8601 65.4044 69.9468C65.3308 70.0696 65.2498 70.1855 65.183 70.301C65.1293 70.3877 65.0757 70.4744 65.0293 70.568C64.9625 70.6835 64.8888 70.8062 64.8293 70.9285C64.7757 71.0153 64.7362 71.1015 64.6898 71.1951C64.6303 71.3174 64.5635 71.4328 64.5039 71.5551C64.4644 71.6414 64.4181 71.7349 64.3712 71.8143C64.3117 71.9366 64.2522 72.0589 64.2 72.1881C64.1605 72.2743 64.1209 72.3606 64.0883 72.4395C64.036 72.5686 63.9838 72.6978 63.9248 72.8342C63.8921 72.9131 63.8594 72.9921 63.8267 73.071C63.7681 73.2216 63.7164 73.3648 63.6579 73.5154C63.6388 73.5797 63.6125 73.6372 63.5861 73.6947C63.5153 73.9023 63.4446 74.1099 63.3811 74.3243C63.3816 74.3384 63.3679 74.353 63.3684 74.3672C63.3113 74.5601 63.2542 74.7531 63.1971 74.9461C63.178 75.0104 63.1663 75.0816 63.1472 75.1459C63.1096 75.2887 63.072 75.4314 63.0413 75.5669C63.0227 75.6454 63.0042 75.7238 62.9856 75.8023C62.9616 75.9305 62.9236 76.0591 62.8996 76.1873C62.8811 76.2657 62.8698 76.351 62.8586 76.4363C62.8346 76.5645 62.8175 76.6853 62.7935 76.8135C62.7823 76.8988 62.771 76.9841 62.7525 77.0625C62.7354 77.1834 62.7182 77.3042 62.7011 77.4251C62.6899 77.5104 62.6786 77.5957 62.6674 77.6809C62.6502 77.8018 62.6404 77.9295 62.6301 78.043C62.6189 78.1283 62.6145 78.2063 62.6032 78.2916C62.5934 78.4193 62.5904 78.5396 62.5806 78.6673C62.5762 78.7453 62.5718 78.8233 62.5673 78.9013C62.5575 79.029 62.555 79.1635 62.5525 79.298C62.5549 79.3686 62.55 79.4325 62.5456 79.5105C62.5436 79.6591 62.5488 79.8146 62.5468 79.9632C62.5483 80.0056 62.5429 80.0553 62.5516 80.1046C62.5583 80.3025 62.5651 80.5003 62.5718 80.6982C62.5728 80.7265 62.5805 80.7474 62.5742 80.7689C62.58 80.9385 62.5999 81.1076 62.6056 81.2772C62.6148 81.3406 62.6241 81.4039 62.6192 81.4678C62.6308 81.6018 62.6419 81.7217 62.6604 81.8484C62.6701 81.9259 62.6793 81.9893 62.689 82.0668C62.7002 82.1867 62.7182 82.2993 62.7362 82.4119C62.7459 82.4894 62.7556 82.5669 62.7721 82.6371C62.7901 82.7497 62.8081 82.8622 62.8255 82.9607C62.8353 83.0382 62.8591 83.1152 62.8688 83.1927C62.8936 83.298 62.9043 83.4038 62.9291 83.509C62.9388 83.5865 62.9626 83.6636 62.9723 83.7411C62.9971 83.8463 63.022 83.9516 63.0394 84.0501C63.056 84.1203 63.073 84.2046 63.0895 84.2748C63.1143 84.3801 63.146 84.478 63.1708 84.5833C63.1873 84.6535 63.2111 84.7305 63.2277 84.8007C63.2525 84.906 63.2914 85.0108 63.3162 85.1161C63.3396 85.179 63.3561 85.2492 63.3795 85.3121C63.4189 85.431 63.451 85.5431 63.4904 85.662C63.5065 85.7181 63.5221 85.76 63.5381 85.8161C63.5931 85.9769 63.6481 86.1378 63.7172 86.2982C63.7401 86.3469 63.7562 86.403 63.779 86.4517C63.818 86.5565 63.8642 86.6682 63.9032 86.773C63.9338 86.8427 63.9572 86.9056 63.9879 86.9753C64.0263 87.0659 64.0575 87.1498 64.1028 87.2331C64.1334 87.3029 64.1641 87.3726 64.1948 87.4423C64.2327 87.5188 64.2707 87.5953 64.3019 87.6792C64.3325 87.7489 64.3773 87.8181 64.408 87.8878C64.446 87.9644 64.4766 88.0341 64.5215 88.1033C64.5521 88.173 64.5969 88.2422 64.6276 88.312C64.6651 88.3744 64.7031 88.4509 64.7406 88.5133C64.7854 88.5825 64.816 88.6522 64.8608 88.7215C64.8983 88.7839 64.9358 88.8463 64.9806 88.9155C65.0254 88.9847 65.0629 89.0471 65.1077 89.1164C65.1452 89.1788 65.1896 89.2339 65.2271 89.2963C65.2719 89.3655 65.3094 89.4279 65.361 89.4898C65.4053 89.5449 65.4355 89.6005 65.4725 89.6487C65.5173 89.718 65.5689 89.7799 65.6064 89.8423C65.6435 89.8906 65.6732 89.932 65.7102 89.9803C65.8953 90.2216 66.0872 90.4557 66.2854 90.6683C66.322 90.7024 66.3444 90.737 66.3809 90.7711C66.4325 90.8331 66.491 90.8877 66.5494 90.9423C66.586 90.9764 66.6225 91.0106 66.6522 91.052C66.7107 91.1066 66.7618 91.1544 66.8203 91.209C66.8568 91.2431 66.8934 91.2773 66.9299 91.3114C66.981 91.3592 67.0395 91.4138 67.0975 91.4543C67.134 91.4884 67.1632 91.5157 67.2066 91.5426C67.2646 91.5831 67.3157 91.6308 67.3737 91.6713C67.4029 91.6986 67.4463 91.7255 67.4823 91.7455C67.5403 91.7859 67.5983 91.8264 67.6563 91.8669C67.6923 91.8869 67.7216 91.9142 67.7576 91.9342C67.8156 91.9747 67.8804 92.0079 67.9384 92.0483C67.9744 92.0683 68.0032 92.0815 68.0392 92.1015C68.104 92.1347 68.162 92.1752 68.2268 92.2083C68.2556 92.2215 68.277 92.2279 68.3058 92.241C68.3706 92.2742 68.4354 92.3074 68.507 92.3332L68.5143 92.3401C68.7657 92.4518 69.0157 92.5211 69.2647 92.5622C69.2789 92.5617 69.3003 92.5681 69.3218 92.5744C69.3929 92.5862 69.4567 92.5911 69.5206 92.596C69.5489 92.595 69.5703 92.6013 69.6059 92.6072C69.6697 92.6121 69.7263 92.6102 69.7901 92.6151C69.8184 92.6141 69.8466 92.6132 69.8822 92.619C69.9387 92.6171 69.9953 92.6152 70.0586 92.606C70.0869 92.605 70.122 92.5967 70.1503 92.5958C70.2068 92.5939 70.2629 92.5778 70.3262 92.5686C70.3613 92.5603 70.3896 92.5594 70.4174 92.5443C70.4734 92.5282 70.5295 92.5122 70.5855 92.4961C70.6206 92.4878 70.6484 92.4727 70.6694 92.465C70.7254 92.4489 70.781 92.4187 70.8371 92.4027C70.8649 92.3876 70.8927 92.3725 70.9136 92.3647C70.9692 92.3345 71.0321 92.3111 71.0876 92.2809C71.1086 92.2731 71.1291 92.2512 71.15 92.2434C71.7185 91.8987 72.2437 91.3219 72.6672 90.4585C76.1715 83.4411 69.679 72.2708 67.5265 68.8912C70.1501 69.6865 72.7615 70.5387 75.3411 71.4982L75.4415 71.5372C75.5204 71.5699 75.5921 71.5958 75.6778 71.6212C75.6778 71.6212 75.6778 71.6212 75.6851 71.628L77.1621 72.2004C80.3825 73.4848 83.4965 74.9709 86.5042 76.6587C86.3188 77.0329 86.0739 77.5294 85.8046 78.14C85.7714 78.2048 85.7523 78.2691 85.7192 78.3339C85.6079 78.5995 85.4762 78.8869 85.3591 79.1881C85.3264 79.267 85.3005 79.3386 85.2678 79.4176C85.2029 79.5896 85.1312 79.7689 85.0594 79.9482C85.0072 80.0774 84.955 80.2065 84.9101 80.3424C84.8711 80.4428 84.832 80.5432 84.7935 80.6577C84.6636 81.0017 84.5416 81.3667 84.4201 81.7458C84.3556 81.932 84.2985 82.1249 84.2414 82.3179C83.4955 84.7276 82.8922 87.5852 82.9268 90.4778C82.9316 90.6191 82.9291 90.7536 82.9339 90.895C82.9353 90.9374 82.9368 90.9798 82.9382 91.0222C82.9489 91.1279 82.9454 91.2342 82.9561 91.3399C82.9575 91.3823 82.9585 91.4106 82.9599 91.453C82.9715 91.587 82.9763 91.7284 82.988 91.8624C82.9889 91.8907 82.9894 91.9048 82.9904 91.9331C82.9942 92.0461 83.0122 92.1587 83.0229 92.2645C83.0243 92.3069 83.0326 92.342 83.034 92.3844C83.0447 92.4902 83.0553 92.5959 83.0728 92.6944C83.0738 92.7227 83.0748 92.7509 83.0826 92.7719C83.101 92.8986 83.1195 93.0253 83.1379 93.1521C83.1389 93.1803 83.1471 93.2154 83.1549 93.2364C83.1724 93.3348 83.1899 93.4333 83.2074 93.5318C83.2157 93.5669 83.224 93.602 83.2322 93.637C83.2502 93.7496 83.2682 93.8622 83.293 93.9675C83.2935 93.9816 83.3008 93.9885 83.2939 93.9958C83.3192 94.1152 83.3445 94.2346 83.3698 94.354C83.3781 94.3891 83.3858 94.4101 83.3868 94.4384C83.4111 94.5295 83.4355 94.6207 83.4525 94.705C83.4534 94.7333 83.4685 94.761 83.4695 94.7893C83.5016 94.9014 83.5337 95.0135 83.5658 95.1256C83.5658 95.1256 83.5731 95.1325 83.5663 95.1398C83.5911 95.2451 83.63 95.3499 83.6617 95.4478C83.6695 95.4688 83.6777 95.5039 83.6855 95.5249C83.7167 95.6087 83.741 95.6999 83.7721 95.7837C83.7799 95.8047 83.7804 95.8188 83.7882 95.8398C83.8271 95.9446 83.8588 96.0425 83.9045 96.14C83.905 96.1542 83.9123 96.161 83.9196 96.1678C83.9508 96.2517 83.9892 96.3423 84.0272 96.4189C84.035 96.4398 84.0428 96.4608 84.0506 96.4818C84.089 96.5724 84.1275 96.6631 84.1728 96.7465L84.1801 96.7533C84.2185 96.844 84.2711 96.9341 84.3164 97.0175C84.3237 97.0243 84.3242 97.0385 84.3388 97.0521C84.3768 97.1287 84.4216 97.1979 84.4595 97.2744C84.4669 97.2812 84.4746 97.3022 84.4819 97.309C84.5793 97.4685 84.6694 97.621 84.7732 97.759C84.7805 97.7658 84.7878 97.7727 84.7883 97.7868C84.8399 97.8487 84.8774 97.9111 84.929 97.9731C84.9363 97.9799 84.9363 97.9799 84.9436 97.9867C85.0542 98.1174 85.1643 98.2339 85.2739 98.3363C85.2812 98.3431 85.2885 98.35 85.2958 98.3568C85.4127 98.466 85.5219 98.5543 85.6451 98.6421C85.7031 98.6826 85.7679 98.7157 85.8186 98.7494C85.8259 98.7562 85.8259 98.7562 85.8332 98.7631C85.9487 98.8299 86.0778 98.8821 86.2064 98.9202L86.2137 98.927C86.2781 98.946 86.3351 98.9583 86.3994 98.9773C86.3994 98.9773 86.4067 98.9841 86.4135 98.9768C86.5417 99.0008 86.6694 99.0106 86.8039 99.0131L86.818 99.0126C87.8849 98.9693 89.0458 97.9464 90.1553 95.6163C92.7757 90.0723 89.149 80.7856 87.5868 77.287C90.2792 78.8582 92.8775 80.574 95.3685 82.4634L96.8144 83.5816C97.287 83.9547 97.7527 84.3351 98.2185 84.7155C100.075 86.2584 101.85 87.8891 103.549 89.6001C103.482 89.7015 103.415 89.8169 103.335 89.947C103.287 90.0123 103.247 90.0844 103.207 90.1565C103.113 90.3012 103.02 90.4601 102.912 90.6335C102.59 91.1539 102.216 91.7892 101.767 92.5473C101.627 92.7997 101.466 93.0599 101.313 93.341C101.233 93.4853 101.153 93.6295 101.066 93.7669C100.238 95.2242 99.2733 97.0187 98.1917 99.1284C98.1386 99.2293 98.0854 99.3302 98.0463 99.4305C98.0263 99.4666 98.0132 99.4954 97.9932 99.5314C97.96 99.5962 97.9341 99.6678 97.8941 99.74C97.8741 99.776 97.8614 99.8189 97.8414 99.8549C97.8083 99.9197 97.7892 99.9841 97.756 100.049C97.7434 100.092 97.7165 100.135 97.7038 100.178C97.6775 100.235 97.6516 100.307 97.6253 100.365C97.6126 100.408 97.5858 100.451 97.5731 100.494C97.5467 100.551 97.5277 100.616 97.5018 100.687C97.4891 100.73 97.4696 100.78 97.4496 100.816C97.4306 100.881 97.4042 100.938 97.3783 101.01C97.3657 101.053 97.353 101.096 97.333 101.132C97.3071 101.203 97.2881 101.268 97.269 101.332C97.2563 101.375 97.2431 101.404 97.2304 101.446C97.2051 101.532 97.1797 101.618 97.1543 101.704C97.1479 101.725 97.1416 101.747 97.1353 101.768C97.1035 101.875 97.0718 101.982 97.0401 102.09C97.0269 102.118 97.021 102.154 97.022 102.182C97.0034 102.261 96.9849 102.339 96.959 102.411C96.9463 102.454 96.9404 102.489 96.9277 102.532C96.9087 102.596 96.897 102.668 96.8779 102.732C96.8652 102.775 96.8598 102.824 96.8471 102.867C96.8281 102.932 96.8232 102.996 96.811 103.053C96.7983 103.095 96.7929 103.145 96.7875 103.195C96.7753 103.252 96.7636 103.323 96.7514 103.38C96.746 103.43 96.7333 103.473 96.7279 103.522C96.7157 103.579 96.7108 103.643 96.6917 103.708C96.6864 103.757 96.6737 103.8 96.6683 103.85C96.6634 103.914 96.6512 103.971 96.6394 104.042C96.634 104.092 96.6282 104.127 96.6228 104.177C96.6111 104.248 96.6062 104.312 96.5944 104.383C96.5886 104.419 96.59 104.461 96.5841 104.497C96.5734 104.596 96.5631 104.709 96.5523 104.809C96.5464 104.844 96.5474 104.873 96.5415 104.908C96.5298 104.979 96.5322 105.05 96.5205 105.121C96.5151 105.171 96.5165 105.213 96.5111 105.263C96.5062 105.327 96.5081 105.383 96.4959 105.441C96.4905 105.49 96.492 105.533 96.4939 105.589C96.4958 105.646 96.4904 105.695 96.4924 105.752C96.487 105.802 96.4957 105.851 96.4903 105.901C96.4923 105.957 96.4869 106.007 96.4888 106.063C96.4834 106.113 96.4922 106.162 96.4868 106.212C96.4887 106.269 96.4901 106.311 96.492 106.367C96.494 106.424 96.4954 106.466 96.4973 106.523C96.4919 106.573 96.5007 106.622 96.5026 106.678C96.5045 106.735 96.506 106.777 96.5079 106.834C96.5093 106.876 96.5113 106.933 96.5127 106.975C96.5146 107.032 96.5234 107.081 96.518 107.131C96.5194 107.173 96.5282 107.222 96.5296 107.265C96.5403 107.371 96.5441 107.484 96.5621 107.596C96.5704 107.631 96.5645 107.667 96.5728 107.702C96.5747 107.758 96.5907 107.815 96.5927 107.871C96.5941 107.913 96.6024 107.949 96.6038 107.991C96.6126 108.04 96.6218 108.104 96.6305 108.153C96.6388 108.188 96.6403 108.23 96.6485 108.265C96.6573 108.315 96.6665 108.378 96.6752 108.427C96.6835 108.462 96.685 108.505 96.6932 108.54C96.702 108.589 96.718 108.645 96.7199 108.702C96.7282 108.737 96.7365 108.772 96.7447 108.807C96.7608 108.863 96.7695 108.912 96.7856 108.968C96.7939 109.003 96.8021 109.038 96.8104 109.074C96.8265 109.13 96.8352 109.179 96.8513 109.235C96.8522 109.263 96.8673 109.291 96.8683 109.319C96.8843 109.375 96.9004 109.431 96.9164 109.487C96.9169 109.501 96.9247 109.522 96.932 109.529C96.9958 109.739 97.0736 109.949 97.1442 110.152C97.1447 110.166 97.152 110.173 97.1525 110.187C97.1758 110.25 97.1987 110.298 97.2289 110.354C97.2367 110.375 97.2445 110.396 97.2523 110.417C97.2751 110.466 97.3053 110.521 97.3214 110.577C97.3292 110.598 97.337 110.619 97.3521 110.647C97.3749 110.696 97.3978 110.745 97.428 110.8C97.4358 110.821 97.4436 110.842 97.4655 110.862C97.4884 110.911 97.5113 110.96 97.5483 111.008C97.5561 111.029 97.5707 111.043 97.5785 111.064C97.6014 111.113 97.6384 111.161 97.6613 111.21C97.6759 111.223 97.6763 111.237 97.691 111.251C97.7212 111.307 97.7582 111.355 97.7879 111.396C97.7952 111.403 97.7952 111.403 97.8025 111.41C97.9588 111.638 98.1215 111.845 98.3047 112.03C98.312 112.037 98.3193 112.043 98.3193 112.043C98.3631 112.084 98.3997 112.118 98.4435 112.159C98.4508 112.166 98.4654 112.18 98.4727 112.187C98.5093 112.221 98.5531 112.262 98.5896 112.296C98.6043 112.31 98.6116 112.316 98.6262 112.33C98.6627 112.364 98.7061 112.391 98.7499 112.432C98.7645 112.446 98.7718 112.452 98.7933 112.459C98.8366 112.486 98.8732 112.52 98.9238 112.553C98.9312 112.56 98.9458 112.574 98.9599 112.573C99.0033 112.6 99.0539 112.634 99.0973 112.661C99.1046 112.668 99.1046 112.668 99.1119 112.674C99.3355 112.801 99.5655 112.907 99.8087 112.983C99.8657 112.995 99.9159 113.015 99.9729 113.027C99.987 113.027 99.9944 113.034 100.008 113.033C100.066 113.045 100.115 113.051 100.165 113.07C100.18 113.07 100.201 113.076 100.215 113.076C100.265 113.081 100.322 113.093 100.372 113.099C100.386 113.098 100.407 113.104 100.421 113.104C100.471 113.109 100.535 113.114 100.585 113.12C100.599 113.119 100.62 113.125 100.634 113.125C100.691 113.123 100.74 113.128 100.804 113.133C100.818 113.133 100.833 113.132 100.847 113.132C101.455 113.125 102.122 112.968 102.847 112.647C109.621 109.615 105.949 95.4688 104.468 90.6231C107.175 93.439 109.676 96.46 111.928 99.6593C111.929 99.6734 111.929 99.6734 111.929 99.6875L112.77 100.883C114.058 102.785 115.264 104.746 116.379 106.76C116.373 106.781 116.367 106.803 116.36 106.824C116.316 106.974 116.271 107.11 116.234 107.253C116.227 107.275 116.228 107.289 116.221 107.31C116.184 107.453 116.146 107.596 116.116 107.745C116.116 107.76 116.11 107.781 116.103 107.788C116.073 107.938 116.043 108.087 116.012 108.237C116.013 108.265 116 108.294 116.001 108.322C115.978 108.465 115.947 108.614 115.931 108.763C115.932 108.792 115.926 108.813 115.927 108.841C115.904 108.998 115.888 109.147 115.872 109.31L115.872 109.324C115.856 109.473 115.847 109.629 115.838 109.785C115.839 109.814 115.833 109.835 115.834 109.863C115.825 110.019 115.823 110.168 115.821 110.317C115.822 110.345 115.823 110.373 115.817 110.409C115.815 110.557 115.806 110.713 115.812 110.869C115.805 110.89 115.813 110.911 115.814 110.939C115.812 111.088 115.817 111.244 115.829 111.392C115.83 111.406 115.83 111.42 115.831 111.434C115.836 111.59 115.849 111.752 115.861 111.9C115.862 111.928 115.863 111.957 115.864 111.985C115.876 112.133 115.895 112.288 115.907 112.436C115.908 112.464 115.909 112.493 115.91 112.521C115.93 112.676 115.949 112.831 115.968 112.986C115.969 113 115.976 113.007 115.977 113.021C115.996 113.176 116.022 113.324 116.042 113.479C116.05 113.5 116.051 113.528 116.051 113.542C116.077 113.69 116.104 113.852 116.13 113.999C116.131 114.028 116.139 114.063 116.147 114.084C116.181 114.238 116.207 114.386 116.241 114.54C116.248 114.561 116.249 114.59 116.257 114.611C116.291 114.765 116.331 114.912 116.365 115.067C116.372 115.074 116.365 115.081 116.372 115.088C116.413 115.249 116.454 115.396 116.494 115.558C116.502 115.579 116.511 115.614 116.518 115.635C116.559 115.782 116.606 115.936 116.647 116.083C116.662 116.111 116.663 116.139 116.678 116.167C116.726 116.321 116.773 116.475 116.828 116.622C116.828 116.636 116.843 116.65 116.843 116.664C116.898 116.81 116.938 116.958 116.993 117.104C117.001 117.125 117.008 117.146 117.009 117.16C117.063 117.307 117.118 117.454 117.172 117.601C117.187 117.628 117.188 117.657 117.203 117.684C117.258 117.831 117.319 117.971 117.374 118.117C117.382 118.138 117.397 118.166 117.405 118.187C117.466 118.341 117.528 118.48 117.59 118.633C117.658 118.78 117.72 118.933 117.789 119.08C117.796 119.1 117.812 119.128 117.819 119.149C117.881 119.289 117.956 119.428 118.017 119.567C118.033 119.595 118.04 119.616 118.055 119.644C118.131 119.782 118.192 119.922 118.268 120.061C118.275 120.082 118.283 120.089 118.291 120.11C118.359 120.242 118.434 120.381 118.502 120.513C118.51 120.52 118.517 120.541 118.525 120.547C118.6 120.686 118.668 120.818 118.751 120.95C118.766 120.978 118.774 120.999 118.789 121.027C118.864 121.151 118.939 121.29 119.014 121.415C119.022 121.436 119.044 121.457 119.052 121.478C119.134 121.609 119.216 121.741 119.299 121.872L119.306 121.879C119.388 122.011 119.47 122.143 119.552 122.26C119.56 122.281 119.575 122.295 119.582 122.316C119.664 122.433 119.739 122.558 119.828 122.682C119.843 122.71 119.858 122.724 119.873 122.751C119.955 122.869 120.044 122.993 120.126 123.111C120.141 123.124 120.141 123.139 120.156 123.152C120.237 123.27 120.326 123.38 120.408 123.497C120.415 123.504 120.423 123.511 120.423 123.525C120.512 123.635 120.594 123.753 120.682 123.863C120.697 123.877 120.712 123.905 120.726 123.918C120.815 124.028 120.896 124.132 120.985 124.242C121 124.256 121.008 124.277 121.029 124.297C121.118 124.407 121.214 124.51 121.302 124.62L121.31 124.627C121.405 124.73 121.486 124.833 121.582 124.936C121.596 124.95 121.604 124.957 121.618 124.97C121.707 125.066 121.795 125.162 121.883 125.259C121.897 125.272 121.912 125.286 121.934 125.306C122.022 125.402 122.117 125.491 122.198 125.58C122.213 125.594 122.22 125.601 122.235 125.614C122.33 125.703 122.418 125.799 122.512 125.874L122.52 125.881C122.615 125.969 122.702 126.051 122.797 126.126C122.811 126.14 122.826 126.153 122.833 126.16C122.921 126.242 123.015 126.317 123.103 126.384C123.117 126.398 123.125 126.405 123.139 126.419C123.234 126.493 123.328 126.568 123.415 126.636C123.423 126.642 123.423 126.642 123.43 126.649C123.517 126.717 123.612 126.792 123.706 126.852C123.713 126.859 123.72 126.866 123.728 126.873C123.815 126.94 123.909 127.001 123.996 127.055C124.01 127.068 124.024 127.068 124.039 127.081C124.126 127.135 124.22 127.196 124.307 127.249C124.314 127.256 124.328 127.256 124.343 127.269C124.53 127.376 124.703 127.469 124.883 127.555C124.89 127.562 124.904 127.561 124.912 127.568C124.998 127.608 125.084 127.647 125.163 127.68C125.17 127.687 125.185 127.686 125.199 127.7C125.285 127.739 125.371 127.765 125.457 127.79C125.457 127.79 125.464 127.797 125.471 127.79C125.557 127.815 125.643 127.841 125.721 127.859L125.735 127.859C125.814 127.877 125.892 127.896 125.977 127.907C125.991 127.907 125.999 127.913 126.013 127.913C126.181 127.851 126.252 127.862 126.33 127.867C126.344 127.866 126.344 127.866 126.358 127.866C126.514 127.875 126.677 127.876 126.825 127.864C126.839 127.864 126.839 127.864 126.853 127.863C126.931 127.853 126.994 127.844 127.064 127.828C127.078 127.827 127.085 127.82 127.099 127.819C127.17 127.803 127.24 127.786 127.309 127.756C127.309 127.756 127.316 127.748 127.33 127.748C127.393 127.724 127.463 127.694 127.533 127.663L127.54 127.656C127.609 127.625 127.672 127.588 127.734 127.55C127.741 127.543 127.755 127.542 127.762 127.535C127.824 127.498 127.879 127.453 127.941 127.402C127.948 127.394 127.955 127.387 127.962 127.38C128.01 127.343 128.072 127.291 128.127 127.233C128.762 126.581 129.183 125.428 129.307 123.655C129.974 113.317 121.195 107.919 117.963 106.296C116.824 104.219 115.588 102.202 114.269 100.245L113.525 99.1664C111.212 95.856 108.643 92.717 105.862 89.7904C110.371 91.7173 121.81 95.8496 126.466 90.6468C127.7 89.2677 128.117 88.0295 127.947 86.9669C127.94 86.9601 127.946 86.9528 127.939 86.946C127.886 86.6365 127.784 86.3357 127.633 86.0578L127.626 86.051C127.475 85.7731 127.275 85.504 127.04 85.2573L127.033 85.2504C126.798 85.0037 126.514 84.7657 126.202 84.557C126.195 84.5502 126.195 84.5502 126.188 84.5433C126.13 84.5029 126.064 84.4555 126 84.4224C125.74 84.2614 125.458 84.1082 125.163 83.9555C125.156 83.9487 125.134 83.9424 125.127 83.9355C125.062 83.9024 124.991 83.8765 124.919 83.8365C124.911 83.8297 124.897 83.8302 124.89 83.8233C124.667 83.7248 124.438 83.6335 124.194 83.5427C124.187 83.5359 124.172 83.5364 124.165 83.5296C124.094 83.5037 124.022 83.4778 123.95 83.452C123.929 83.4456 123.9 83.4324 123.879 83.4261C123.807 83.4002 123.743 83.3812 123.664 83.3626C123.643 83.3563 123.621 83.3499 123.593 83.3368C123.357 83.267 123.121 83.1971 122.886 83.1415C122.857 83.1283 122.829 83.1293 122.807 83.1229C122.743 83.1039 122.672 83.0921 122.6 83.0804C122.565 83.0745 122.522 83.0618 122.486 83.056C122.415 83.0442 122.351 83.0252 122.28 83.0135C122.237 83.0008 122.201 82.9949 122.152 82.9895C122.08 82.9778 122.016 82.9587 121.952 82.9538C121.917 82.948 121.881 82.9421 121.846 82.9362C121.717 82.9123 121.589 82.8884 121.462 82.8785C121.412 82.8732 121.362 82.8678 121.319 82.8551C121.255 82.8502 121.198 82.838 121.135 82.8331C121.085 82.8277 121.028 82.8155 120.971 82.8174C120.907 82.8125 120.85 82.8003 120.787 82.7954C120.73 82.7831 120.673 82.7851 120.609 82.7802C120.545 82.7752 120.496 82.7699 120.432 82.765C120.347 82.7537 120.269 82.7493 120.176 82.7453C120.105 82.7336 120.035 82.736 119.963 82.7243C119.886 82.7198 119.822 82.7149 119.744 82.7105C119.694 82.7051 119.637 82.707 119.588 82.7017C119.524 82.6968 119.453 82.6992 119.389 82.6943C119.333 82.6962 119.283 82.6908 119.227 82.6927C119.156 82.6951 119.078 82.6907 119.014 82.6858C118.964 82.6804 118.922 82.6818 118.865 82.6838C118.745 82.6808 118.632 82.6846 118.512 82.6816C118.483 82.6826 118.455 82.6835 118.42 82.6777C118.327 82.6737 118.236 82.6839 118.144 82.68C118.101 82.6814 118.045 82.6833 118.002 82.6848C117.932 82.6872 117.847 82.6901 117.776 82.6925C117.734 82.6939 117.677 82.6958 117.635 82.6973C117.55 82.7002 117.473 82.7099 117.388 82.7127C117.345 82.7142 117.303 82.7156 117.261 82.7171C117.141 82.7282 117.021 82.7394 116.901 82.7505C116.887 82.751 116.866 82.7588 116.844 82.7524C116.739 82.7631 116.633 82.7738 116.527 82.7844C116.485 82.7859 116.45 82.7941 116.4 82.8029C116.323 82.8126 116.231 82.8228 116.154 82.8325C116.111 82.8339 116.062 82.8427 116.027 82.851C115.943 82.868 115.858 82.8709 115.773 82.8879C115.738 82.8961 115.696 82.8976 115.661 82.9058C115.534 82.9243 115.422 82.9423 115.302 82.9676C115.288 82.968 115.281 82.9753 115.274 82.9685C115.161 82.9865 115.056 83.0113 114.943 83.0293C114.908 83.0375 114.873 83.0458 114.824 83.0546C114.74 83.0716 114.655 83.0886 114.578 83.1124C114.536 83.128 114.494 83.1295 114.452 83.145C114.368 83.162 114.291 83.1859 114.206 83.2029C114.171 83.2112 114.136 83.2194 114.101 83.2277C113.989 83.2598 113.87 83.2851 113.751 83.3245C113.751 83.3245 113.744 83.3318 113.737 83.325C113.624 83.3571 113.512 83.3892 113.4 83.4213C113.365 83.4296 113.33 83.4379 113.295 83.4603C113.218 83.4841 113.135 83.5153 113.058 83.5391C113.016 83.5547 112.981 83.5629 112.939 83.5785C112.862 83.6024 112.778 83.6335 112.708 83.6642C112.673 83.6724 112.638 83.6948 112.603 83.7031C112.492 83.7494 112.387 83.7883 112.275 83.8345C110.628 84.5131 109.305 85.1382 108.249 85.6977C107.943 85.8637 107.665 86.0147 107.402 86.1651C107.138 86.3156 106.895 86.4583 106.674 86.6073C106.341 86.8167 106.044 87.0178 105.789 87.2034C105.706 87.2628 105.623 87.3222 105.54 87.3816C105.222 87.6188 104.975 87.8254 104.769 88.0163C104.714 88.0606 104.673 88.1045 104.625 88.1556C104.557 88.2287 104.481 88.2949 104.427 88.3534C102.698 86.6292 100.888 84.9785 99.0091 83.4151L97.532 82.213C94.7766 80.0355 91.8787 78.0397 88.8603 76.2461C93.8927 76.719 108.386 77.4363 109.152 70.2007C109.183 69.8883 109.202 69.6047 109.207 69.3215C109.204 69.2509 109.209 69.187 109.207 69.1164L109.206 69.1022C109.204 69.0316 109.202 68.975 109.193 68.9117L109.192 68.8975C109.19 68.841 109.181 68.7776 109.179 68.7211L109.179 68.707C109.175 68.608 109.166 68.5447 109.164 68.4881L109.164 68.474C109.162 68.4175 109.146 68.3614 109.144 68.3049C109.136 68.298 109.143 68.2907 109.136 68.2839C109.127 68.2347 109.118 68.1713 109.109 68.1221C109.102 68.1153 109.109 68.1079 109.102 68.1011C109.093 68.0519 109.077 67.9958 109.068 67.9466C109.061 67.9398 109.067 67.9325 109.06 67.9256C109.051 67.8764 109.043 67.8272 109.02 67.7784C109.012 67.7716 109.019 67.7643 109.012 67.7575C109.003 67.7082 108.988 67.6663 108.965 67.6176C108.957 67.6108 108.964 67.6034 108.957 67.5966C108.941 67.5547 108.933 67.5055 108.91 67.4567C108.902 67.4499 108.909 67.4426 108.902 67.4358C108.886 67.3938 108.871 67.3519 108.848 67.3032C108.841 67.2963 108.848 67.289 108.84 67.2822C108.825 67.2403 108.809 67.1984 108.779 67.1569C108.772 67.1501 108.779 67.1428 108.772 67.136C108.756 67.094 108.734 67.0594 108.711 67.0107C108.703 67.0038 108.703 67.0038 108.703 66.9897C108.681 66.9551 108.665 66.9132 108.635 66.8717C108.628 66.8649 108.628 66.8649 108.627 66.8508C108.605 66.8162 108.583 66.7815 108.553 66.7401C108.546 66.7333 108.546 66.7333 108.538 66.7265C108.516 66.6918 108.494 66.6572 108.464 66.6158C108.456 66.609 108.456 66.609 108.449 66.6021C108.427 66.5675 108.39 66.5334 108.368 66.4988C108.361 66.4919 108.361 66.4919 108.353 66.4851C108.331 66.4505 108.294 66.4164 108.265 66.3891L108.258 66.3822C108.229 66.3549 108.192 66.3208 108.17 66.2862L108.162 66.2793C108.133 66.252 108.097 66.2179 108.067 66.1906L108.06 66.1838C108.031 66.1565 107.994 66.1223 107.958 66.1023C107.958 66.1023 107.958 66.1023 107.951 66.0955C107.914 66.0614 107.878 66.0414 107.842 66.0072C107.798 65.9804 107.769 65.9531 107.726 65.9263C106.8 65.3351 105.501 65.2165 103.988 65.4448C103.925 65.454 103.861 65.4633 103.798 65.4725C103.798 65.4725 103.798 65.4725 103.791 65.4798C103.728 65.489 103.664 65.4983 103.608 65.5143L103.594 65.5148C103.531 65.524 103.475 65.5401 103.411 65.5493C103.404 65.5566 103.397 65.5498 103.39 65.5571C103.327 65.5663 103.271 65.5824 103.201 65.5989C103.194 65.6062 103.187 65.5994 103.18 65.6067C103.116 65.6159 103.06 65.632 102.997 65.6554C102.983 65.6558 102.976 65.6631 102.969 65.6563C102.913 65.6724 102.85 65.6816 102.787 65.705C102.773 65.7054 102.766 65.7127 102.752 65.7132C102.696 65.7293 102.632 65.7385 102.569 65.7619C102.555 65.7624 102.549 65.7697 102.534 65.7701C102.478 65.7862 102.422 65.8023 102.352 65.8188C102.338 65.8193 102.331 65.8266 102.317 65.8271C102.261 65.8431 102.198 65.8665 102.142 65.8825C102.128 65.883 102.121 65.8903 102.1 65.8981C102.044 65.9142 101.981 65.9375 101.925 65.9536C101.911 65.9541 101.897 65.9687 101.883 65.9691C101.827 65.9852 101.764 66.0086 101.708 66.0246C101.694 66.0251 101.673 66.0329 101.666 66.0402C101.61 66.0562 101.547 66.0796 101.491 66.0957C101.477 66.0961 101.456 66.1039 101.449 66.1112C101.393 66.1273 101.33 66.1507 101.274 66.1667C101.253 66.1745 101.239 66.175 101.226 66.1896C101.17 66.2056 101.107 66.229 101.051 66.2451C101.03 66.2529 101.015 66.2533 101.002 66.268C100.946 66.284 100.883 66.3074 100.827 66.3376C100.806 66.3453 100.792 66.3458 100.779 66.3604C100.716 66.3838 100.667 66.4067 100.604 66.43C100.583 66.4378 100.569 66.4383 100.548 66.4461C100.485 66.4695 100.436 66.4923 100.373 66.5157C100.353 66.5235 100.332 66.5313 100.325 66.5386C100.262 66.5619 100.213 66.5848 100.15 66.6082C100.129 66.616 100.108 66.6238 100.101 66.6311C100.039 66.6544 99.9899 66.6773 99.927 66.7007C99.906 66.7085 99.8851 66.7163 99.8714 66.7309C99.8085 66.7542 99.7529 66.7844 99.6969 66.8005C99.6759 66.8083 99.655 66.8161 99.634 66.8238C99.5711 66.8472 99.5155 66.8774 99.4527 66.9008C99.4317 66.9085 99.4107 66.9163 99.4039 66.9236C99.341 66.947 99.2855 66.9772 99.2226 67.0005C99.2016 67.0083 99.1807 67.0161 99.167 67.0307C99.1114 67.0609 99.0485 67.0843 98.993 67.1145C98.972 67.1223 98.9584 67.1369 98.9374 67.1447C98.8818 67.1749 98.8189 67.1982 98.7634 67.2284C98.7424 67.2362 98.7214 67.244 98.7078 67.2586C98.6522 67.2888 98.5893 67.3121 98.5337 67.3423C98.5128 67.3501 98.4991 67.3647 98.485 67.3652C98.4294 67.3954 98.3597 67.4261 98.3041 67.4563C98.2832 67.4641 98.2695 67.4787 98.2554 67.4791C98.1998 67.5093 98.1301 67.54 98.0745 67.5702C98.0536 67.578 98.0467 67.5853 98.0258 67.5931C97.9634 67.6306 97.9005 67.6539 97.8381 67.6914C97.824 67.6919 97.8103 67.7065 97.7962 67.707C97.7338 67.7445 97.6641 67.7752 97.6017 67.8127C97.5948 67.82 97.5807 67.8205 97.567 67.8351C97.4973 67.8657 97.4349 67.9032 97.3657 67.948C97.3589 67.9553 97.3447 67.9558 97.3447 67.9558C97.2682 67.9938 97.2058 68.0313 97.1293 68.0693C96.5803 68.3639 96.0392 68.6794 95.4985 69.0091C95.4361 69.0466 95.3669 69.0914 95.3045 69.1289C95.2909 69.1435 95.2767 69.144 95.2631 69.1586C95.2075 69.1888 95.1524 69.2331 95.0968 69.2633C95.0759 69.2711 95.0554 69.293 95.0344 69.3008C94.9788 69.331 94.9306 69.368 94.875 69.3982C94.8472 69.4133 94.8267 69.4352 94.8058 69.443C94.7575 69.48 94.7019 69.5102 94.6605 69.5399C94.6327 69.555 94.6049 69.5701 94.5844 69.592C94.5362 69.629 94.4874 69.6519 94.4391 69.6889C94.4114 69.704 94.3767 69.7264 94.349 69.7415C94.3075 69.7712 94.2519 69.8014 94.2105 69.8311C94.1759 69.8535 94.1481 69.8686 94.1135 69.891C94.072 69.9207 94.0306 69.9504 93.975 69.9806C93.9404 70.003 93.9126 70.0181 93.878 70.0405C93.8366 70.0702 93.7951 70.0999 93.7537 70.1296C93.7191 70.152 93.6845 70.1745 93.6567 70.1895C93.6152 70.2193 93.5738 70.249 93.5323 70.2787C93.4977 70.3011 93.4631 70.3235 93.4285 70.3459C93.3871 70.3756 93.3456 70.4053 93.3042 70.435C93.2696 70.4574 93.2349 70.4798 93.2003 70.5022C93.1589 70.5319 93.1175 70.5616 93.076 70.5913C93.0414 70.6137 93.0068 70.6361 92.9795 70.6654C92.938 70.6951 92.8966 70.7248 92.8551 70.7545C92.8205 70.7769 92.7859 70.7993 92.7586 70.8285C92.7172 70.8582 92.6826 70.8806 92.6411 70.9103C92.6065 70.9327 92.5651 70.9625 92.5378 70.9917C92.4963 71.0214 92.4617 71.0438 92.4276 71.0803C92.3929 71.1027 92.3515 71.1324 92.3242 71.1617C92.2828 71.1914 92.2481 71.2138 92.214 71.2503C92.1794 71.2727 92.1379 71.3024 92.1106 71.3316C92.0692 71.3614 92.0346 71.3838 92.0005 71.4203C91.9658 71.4427 91.9317 71.4792 91.8971 71.5016C91.8557 71.5313 91.8283 71.5606 91.7869 71.5903C91.7523 71.6127 91.7182 71.6492 91.6835 71.6716C91.6489 71.694 91.6148 71.7306 91.5802 71.753C91.5456 71.7754 91.5114 71.8119 91.4768 71.8343C91.4422 71.8567 91.4081 71.8932 91.3734 71.9156C91.3388 71.938 91.3047 71.9746 91.2701 71.997C91.2355 72.0194 91.2013 72.0559 91.1667 72.0783C91.1321 72.1007 91.098 72.1373 91.0634 72.1597C91.0287 72.1821 90.9946 72.2186 90.96 72.241C90.9254 72.2634 90.8912 72.2999 90.8566 72.3223C90.822 72.3447 90.7879 72.3813 90.7533 72.4037C90.7187 72.4261 90.6845 72.4626 90.6499 72.485C90.6153 72.5074 90.5812 72.5439 90.5465 72.5663C90.5192 72.5956 90.4778 72.6253 90.4505 72.6545C90.4232 72.6837 90.3817 72.7134 90.3544 72.7427C90.3271 72.7719 90.2857 72.8016 90.2584 72.8308C90.2311 72.8601 90.1965 72.8825 90.1623 72.919C90.135 72.9482 90.0936 72.9779 90.0663 73.0072C90.039 73.0364 90.0043 73.0588 89.977 73.088C89.9497 73.1173 89.9083 73.147 89.881 73.1762C89.8537 73.2054 89.8191 73.2278 89.7917 73.2571C89.7644 73.2863 89.723 73.316 89.6957 73.3452C89.6684 73.3745 89.6338 73.3969 89.6065 73.4261C89.5792 73.4553 89.5377 73.485 89.5104 73.5143C89.4831 73.5435 89.4485 73.5659 89.4212 73.5951C89.3939 73.6243 89.3524 73.654 89.3251 73.6833C89.2978 73.7125 89.2705 73.7417 89.2359 73.7641C89.2086 73.7934 89.1744 73.8299 89.1398 73.8523C89.1125 73.8815 89.0852 73.9108 89.0506 73.9332C89.0233 73.9624 88.996 73.9916 88.9545 74.0213C88.9272 74.0506 88.8999 74.0798 88.8726 74.109C88.8453 74.1382 88.8112 74.1748 88.7839 74.204C88.7566 74.2332 88.7293 74.2625 88.7088 74.2844C88.6815 74.3136 88.6542 74.3428 88.62 74.3794C88.5927 74.4086 88.5654 74.4378 88.5449 74.4598C88.5176 74.489 88.4903 74.5182 88.463 74.5474C88.4357 74.5767 88.4152 74.5986 88.3879 74.6278C88.3606 74.657 88.3333 74.6863 88.306 74.7155C88.2787 74.7447 88.2582 74.7667 88.2309 74.7959C88.2036 74.8251 88.1763 74.8543 88.149 74.8836C88.1217 74.9128 88.1012 74.9347 88.0739 74.9639C88.0466 74.9932 88.0193 75.0224 87.992 75.0516C87.9715 75.0736 87.9442 75.1028 87.9237 75.1247C87.8964 75.1539 87.8691 75.1832 87.8349 75.2197C87.8145 75.2416 87.7872 75.2708 87.7667 75.2928C87.7394 75.322 87.7052 75.3585 87.6852 75.3946C87.6784 75.4019 87.6647 75.4165 87.6579 75.4238C85.4357 74.155 83.1466 73.0018 80.8048 71.9635C80.1441 71.6746 79.4833 71.3857 78.809 71.1115L77.5679 70.6089C74.9361 69.5734 72.259 68.6597 69.5486 67.8108C74.1812 67.5543 83.7048 65.9006 87.1311 57.0039C87.8006 55.2619 87.9348 54.005 87.6652 53.151C87.6652 53.151 87.6579 53.1442 87.6647 53.1369C87.6409 53.0598 87.6102 52.9901 87.5795 52.9204C87.5795 52.9204 87.5722 52.9136 87.5791 52.9063C87.5484 52.8366 87.5109 52.7742 87.4802 52.7045C87.3979 52.5728 87.3093 52.4627 87.2065 52.3529C87.1554 52.3052 87.1042 52.2574 87.0462 52.2169L87.0389 52.2101C86.981 52.1696 86.923 52.1291 86.8582 52.0959C86.8582 52.0959 86.8582 52.0959 86.8509 52.0891C86.656 51.9754 86.4411 51.8978 86.2057 51.8422C86.2057 51.8422 86.1984 51.8353 86.1916 51.8426C86.1131 51.8241 86.0278 51.8128 85.9494 51.7943C85.9494 51.7943 85.9421 51.7874 85.9352 51.7947C85.6794 51.761 85.4031 51.7492 85.1067 51.7734L85.0926 51.7739C84.9937 51.7772 84.902 51.7874 84.7963 51.7981L84.7821 51.7986C84.4721 51.8374 84.1417 51.8981 83.798 51.9876C83.7912 51.995 83.7839 51.9881 83.7771 51.9954C83.665 52.0275 83.5597 52.0524 83.4407 52.0918C83.4339 52.0991 83.4198 52.0996 83.4198 52.0996C83.3077 52.1317 83.1887 52.1711 83.0698 52.2105L83.063 52.2178C82.8251 52.2966 82.5735 52.3901 82.322 52.4835C82.3152 52.4908 82.3011 52.4913 82.3011 52.4913C82.1753 52.538 82.0568 52.5916 81.9311 52.6383C81.9169 52.6388 81.9101 52.6461 81.8892 52.6539C81.7707 52.7075 81.6381 52.7615 81.5196 52.815C81.5128 52.8223 81.4987 52.8228 81.4987 52.8228C81.2408 52.9377 80.9834 53.0667 80.7119 53.1962C80.705 53.2035 80.6909 53.204 80.6841 53.2113C80.5588 53.2722 80.4267 53.3404 80.3019 53.4154C80.2809 53.4231 80.2741 53.4304 80.2531 53.4382C80.121 53.5064 79.9962 53.5814 79.8641 53.6496C79.8573 53.6569 79.8363 53.6646 79.8295 53.672C79.5658 53.8224 79.2884 53.9875 79.011 54.1526C79.0041 54.1599 78.99 54.1604 78.9832 54.1677C78.8515 54.25 78.7199 54.3323 78.5883 54.4146C78.5673 54.4224 78.5537 54.437 78.5327 54.4448C78.4011 54.5271 78.2694 54.6094 78.1451 54.6985C78.1315 54.7131 78.1105 54.7209 78.0968 54.7355C77.9584 54.8251 77.8341 54.9142 77.6956 55.0038C77.6888 55.0111 77.682 55.0185 77.6678 55.0189C77.5294 55.1085 77.3982 55.205 77.2671 55.3014C77.2602 55.3087 77.2534 55.316 77.2393 55.3165C77.1081 55.4129 76.977 55.5094 76.8458 55.6058C76.8322 55.6204 76.8044 55.6355 76.7907 55.6501C76.6596 55.7466 76.5284 55.843 76.4046 55.9463C76.3841 55.9682 76.3631 55.976 76.3427 55.9979C76.2115 56.0943 76.0808 56.2049 75.9497 56.3013C75.936 56.3159 75.9219 56.3164 75.9082 56.331C75.7703 56.4348 75.6464 56.538 75.5158 56.6486C75.5089 56.6559 75.5021 56.6632 75.4953 56.6705C75.3646 56.7811 75.2339 56.8917 75.1033 57.0022C75.0828 57.0241 75.0618 57.0319 75.0413 57.0539C74.9175 57.1571 74.7868 57.2677 74.6703 57.3778C74.6498 57.3997 74.622 57.4148 74.6015 57.4367C74.4709 57.5473 74.3543 57.6574 74.2237 57.7679C74.21 57.7825 74.1895 57.8045 74.1686 57.8122C74.0452 57.9296 73.9077 58.0475 73.7843 58.1649L73.7775 58.1722C73.6541 58.2896 73.524 58.4143 73.4006 58.5317C73.3801 58.5536 73.3665 58.5682 73.346 58.5902C73.2226 58.7076 73.0992 58.825 72.99 58.9419C72.9695 58.9638 72.9491 58.9857 72.9286 59.0076C72.8052 59.125 72.6892 59.2492 72.5799 59.3662C72.5595 59.3881 72.5458 59.4027 72.5253 59.4246C72.4024 59.5561 72.2864 59.6804 72.1635 59.8119C72.1567 59.8192 72.1567 59.8192 72.1498 59.8265C72.0338 59.9507 71.9109 60.0823 71.7948 60.2065C71.7812 60.2211 71.7607 60.243 71.7471 60.2576C71.631 60.3819 71.5222 60.5129 71.4062 60.6371C71.3857 60.659 71.3652 60.681 71.3447 60.7029C71.236 60.8339 71.1268 60.9508 71.018 61.0819C70.9975 61.1038 70.9771 61.1257 70.9639 61.1545C70.8551 61.2855 70.7464 61.4166 70.6308 61.5549C70.624 61.5622 70.6103 61.5769 70.6035 61.5842C70.4948 61.7152 70.3933 61.8531 70.2846 61.9841C70.2709 61.9988 70.2573 62.0134 70.2509 62.0348C70.1495 62.1727 70.0407 62.3037 69.9461 62.4343C69.9256 62.4562 69.9125 62.485 69.892 62.5069C69.7974 62.6375 69.6959 62.7753 69.6013 62.9059C69.5808 62.9278 69.5676 62.9566 69.5472 62.9785C69.4457 63.1164 69.3584 63.2538 69.2643 63.3985C69.2506 63.4131 69.2443 63.4345 69.2374 63.4418C69.1501 63.5792 69.056 63.7239 68.9687 63.8613C68.9619 63.8686 68.9555 63.8901 68.9487 63.8974C68.8546 64.0421 68.7673 64.1795 68.6873 64.3237C68.6741 64.3524 68.6536 64.3744 68.6473 64.3958C68.5599 64.5332 68.4799 64.6774 68.4068 64.8143C68.3936 64.8431 68.3731 64.865 68.3599 64.8937C68.2799 65.038 68.1999 65.1822 68.1268 65.3191C68.1204 65.3405 68.1068 65.3552 68.1004 65.3766C68.0204 65.5208 67.9477 65.6719 67.8677 65.8161C67.8609 65.8234 67.8541 65.8307 67.8614 65.8375C67.7887 65.9886 67.716 66.1396 67.6501 66.2834C67.6438 66.3048 67.6306 66.3336 67.6169 66.3482C67.5511 66.4919 67.4852 66.6357 67.4193 66.7794C67.4062 66.8081 67.393 66.8369 67.3867 66.8583C67.354 66.9373 67.3213 67.0162 67.2817 67.1025C63.2079 65.8966 59.0883 64.7984 55.0022 63.6496L53.0735 63.1067C50.8085 62.4549 48.5567 61.7744 46.3313 61.0364C50.5714 59.0174 63.8557 52.2691 64.6941 47.1677C64.9454 45.6097 64.4123 44.4958 63.3984 43.8086C63.3838 43.7949 63.3696 43.7954 63.355 43.7818C63.1743 43.6676 62.9867 43.5608 62.7781 43.4618C62.7567 43.4554 62.7494 43.4486 62.7279 43.4422C62.5199 43.3573 62.2977 43.2729 62.0691 43.2099C62.0477 43.2036 62.0336 43.2041 62.0121 43.1977C61.8908 43.1665 61.7767 43.142 61.6554 43.1108C61.6554 43.1108 61.6481 43.1039 61.6413 43.1113C61.5272 43.0868 61.4064 43.0697 61.2782 43.0458C61.2568 43.0394 61.2426 43.0399 61.2212 43.0336C61.1003 43.0164 60.9653 42.9998 60.8377 42.99C60.8235 42.9905 60.8162 42.9836 60.8021 42.9841C60.6744 42.9743 60.554 42.9713 60.4263 42.9615C60.4122 42.962 60.3908 42.9556 60.3698 42.9634C60.2353 42.9609 60.1008 42.9584 59.9594 42.9632C59.9453 42.9637 59.917 42.9647 59.9029 42.9651C59.7757 42.9695 59.6485 42.9738 59.5145 42.9854C59.5003 42.9859 59.4862 42.9864 59.4652 42.9942C59.3239 42.999 59.183 43.0179 59.0422 43.0368C59.0139 43.0378 58.9929 43.0456 58.9715 43.0392C58.8375 43.0509 58.7039 43.0766 58.5699 43.0883C58.5557 43.0888 58.5416 43.0892 58.5275 43.0897C58.3866 43.1086 58.2389 43.1349 58.0912 43.1611C58.063 43.1621 58.0352 43.1772 58.0069 43.1781C57.8665 43.2112 57.7257 43.2302 57.5785 43.2705C57.5716 43.2778 57.5643 43.271 57.5575 43.2783C57.4103 43.3187 57.2558 43.3523 57.1086 43.3926C57.0735 43.4009 57.0525 43.4087 57.0174 43.417C56.723 43.4977 56.4223 43.5999 56.1288 43.7089C56.0937 43.7172 56.0659 43.7323 56.0308 43.7406C55.8841 43.7951 55.7374 43.8496 55.5838 43.9114C55.577 43.9187 55.5629 43.9192 55.5629 43.9192C55.4235 43.9805 55.2909 44.0346 55.1514 44.0959C55.1237 44.111 55.0817 44.1266 55.0539 44.1417C54.9077 44.2103 54.7683 44.2716 54.6293 44.3471C54.6084 44.3549 54.5947 44.3695 54.5738 44.3773C54.4417 44.4455 54.3164 44.5063 54.1916 44.5813C54.1638 44.5964 54.1292 44.6188 54.1014 44.6339C53.9624 44.7094 53.8308 44.7917 53.685 44.8745C53.6573 44.8896 53.6436 44.9042 53.6158 44.9193C53.491 44.9943 53.3803 45.0688 53.2555 45.1438C53.2277 45.1589 53.1931 45.1813 53.1727 45.2032C53.0342 45.2928 52.9099 45.3819 52.7787 45.4783C52.7509 45.4934 52.7236 45.5227 52.6958 45.5378C52.5783 45.6196 52.4681 45.7082 52.358 45.7969C52.3375 45.8188 52.3097 45.8339 52.2892 45.8558C52.1654 45.9591 52.0415 46.0623 51.9177 46.1656C51.8904 46.1948 51.8626 46.2099 51.8353 46.2391C51.7256 46.3419 51.6154 46.4306 51.513 46.5402C51.4993 46.5548 51.4788 46.5767 51.4652 46.5913C51.3486 46.7014 51.2326 46.8256 51.1161 46.9357C51.0887 46.965 51.0614 46.9942 51.0341 47.0234C50.9317 47.133 50.8225 47.2499 50.7274 47.3664C50.7206 47.3737 50.7069 47.3883 50.7001 47.3956C50.5913 47.5266 50.4894 47.6504 50.3807 47.7814C50.3534 47.8107 50.3334 47.8467 50.3061 47.8759C50.2046 48.0138 50.0959 48.1449 50.0086 48.2823C47.0671 52.4999 45.8004 56.4485 45.2489 58.9577C45.1023 59.6419 45.0085 60.2111 44.9459 60.6589C41.302 59.4031 37.7156 57.9684 34.2601 56.218L34.1953 56.1848C34.1519 56.158 34.1017 56.1385 34.0584 56.1117L32.9348 55.5272C32.9348 55.5272 32.9348 55.5272 32.9206 55.5277C32.8412 55.4809 32.755 55.4413 32.6756 55.3945L32.6395 55.3745C31.897 54.9682 31.1612 54.5545 30.4319 54.1194C21.6501 48.8709 14.1454 41.6404 8.55513 33.0784C8.01749 32.2477 6.82636 33.215 7.35669 34.0389C12.2977 41.6112 18.754 48.1769 26.2282 53.2576C27.9447 54.4233 29.7216 55.4949 31.5239 56.4808L32.9719 57.2452C36.6448 59.1439 40.4694 60.7191 44.3788 62.0861C44.2906 62.1953 44.2096 62.3112 44.1286 62.4272C44.1082 62.4491 44.0882 62.4852 44.0677 62.5071C43.9594 62.6523 43.8585 62.8043 43.7575 62.9563C43.7438 62.9709 43.7443 62.985 43.7307 62.9996C43.6365 63.1443 43.5424 63.289 43.4483 63.4337C43.4351 63.4625 43.4214 63.4771 43.401 63.499C43.3141 63.6506 43.22 63.7953 43.1332 63.9468C43.12 63.9755 43.1 64.0116 43.0795 64.0335C42.9927 64.185 42.9127 64.3293 42.84 64.4803C42.8336 64.5017 42.8132 64.5237 42.8068 64.5451C42.7341 64.6962 42.6609 64.8331 42.5882 64.9841C42.5819 65.0056 42.5751 65.0129 42.5614 65.0275C42.4887 65.1785 42.4233 65.3364 42.3575 65.4801C42.3443 65.5089 42.3311 65.5376 42.3179 65.5664C42.2594 65.717 42.1935 65.8607 42.1423 66.0181C42.1291 66.0468 42.1228 66.0683 42.1096 66.097C42.051 66.2476 41.9998 66.405 41.9412 66.5556L41.9344 66.5629C41.8831 66.7203 41.8319 66.8777 41.7806 67.0351C41.7674 67.0638 41.7684 67.0921 41.7552 67.1208C41.7108 67.2709 41.6664 67.421 41.6293 67.5779C41.6234 67.6135 41.6102 67.6422 41.6112 67.6705C41.5741 67.8274 41.5296 67.9775 41.4993 68.1271C41.4998 68.1412 41.4935 68.1627 41.4867 68.17C41.4564 68.3196 41.4188 68.4624 41.3953 68.6047C41.3889 68.6261 41.3899 68.6544 41.3836 68.6758C41.3533 68.8254 41.3303 68.9819 41.3068 69.1242C41.301 69.1598 41.3019 69.188 41.296 69.2236C41.2799 69.3727 41.2496 69.5223 41.2334 69.6715C41.2271 69.6929 41.2281 69.7212 41.2217 69.7426C41.2055 69.8917 41.1889 70.0267 41.1796 70.1685C41.1801 70.1827 41.1737 70.2041 41.1742 70.2183C41.158 70.3674 41.156 70.516 41.1472 70.672C41.1481 70.7003 41.1423 70.7358 41.1432 70.7641C41.1412 70.9127 41.1319 71.0546 41.1298 71.2032C41.1308 71.2315 41.1318 71.2597 41.1327 71.288C41.1307 71.4367 41.1287 71.5853 41.1266 71.734L41.1271 71.7481C41.1251 71.8967 41.1304 72.0522 41.1425 72.2004C41.1435 72.2286 41.1444 72.2569 41.1454 72.2852C41.1502 72.4265 41.1623 72.5747 41.1671 72.716C41.168 72.7443 41.169 72.7726 41.1773 72.8077C41.1894 72.9558 41.2015 73.104 41.2204 73.2448C41.2209 73.259 41.2214 73.2731 41.2219 73.2872C41.2335 73.4213 41.2524 73.5621 41.2714 73.703C41.2723 73.7313 41.2801 73.7522 41.2811 73.7805C41.3 73.9214 41.319 74.0622 41.3447 74.1958C41.3968 74.2718 41.3978 74.3001 41.4061 74.3352Z" fill="#3D4775"/>
</svg>
