<svg width="183" height="125" viewBox="0 0 183 125" fill="none" xmlns="http://www.w3.org/2000/svg">
<path d="M49.6856 68.2724C51.0264 59.5643 45.8672 48.3137 43.8421 44.3251C48.6196 47.6152 53.4728 50.5852 58.4011 53.2199C59.7251 82.3621 74.9022 109.124 74.9022 109.124C74.9022 109.124 72.6576 102.653 70.4137 84.3972C68.4305 68.2831 61.9641 57.4833 59.409 53.7533C64.053 56.1872 68.7464 58.3231 73.4858 60.155C75.2044 60.8189 76.9301 61.4402 78.6569 62.0222C83.0831 69.7707 80.0565 83.3257 82.5274 96.0219C84.3838 105.577 98.7539 114.289 98.7539 114.289C98.7539 114.289 86.7137 105.218 88.1963 90.3307C89.3809 78.4403 81.8581 66.4291 78.7808 62.0629C84.28 63.9056 89.8293 65.3416 95.4068 66.3595C95.8852 69.025 97.5721 77.9218 100.149 86.6341C103.19 96.8975 114.237 118.722 114.237 118.722C114.237 118.722 113.928 109.142 110.74 96.0011C108.161 85.385 98.3776 70.2341 95.8592 66.4453C100.497 67.2717 105.155 67.8163 109.83 68.0733C110.611 70.6973 113.294 79.5688 116.548 88.6698C120.428 99.5121 137.873 124.028 137.873 124.028C137.873 124.028 135.008 115.976 129.05 98.6964C123.924 83.8423 113.245 71.3178 110.346 68.0932C114.561 68.307 118.786 68.2907 123.017 68.0384C126.047 69.5658 135.146 72.7634 153.831 69.2679C175.807 65.1595 182.531 62.1364 182.531 62.1364C182.531 62.1364 142.305 55.6963 123.224 66.4774C119.388 66.7148 115.631 66.7469 111.95 66.6128C115.527 63.8376 128.212 53.5621 138.299 39.7969C150.157 23.6083 153.102 18.3365 153.102 18.3365C153.102 18.3365 127.88 40.3325 120.77 50.946C115.162 59.3214 112.31 64.6895 111.351 66.5839C106.325 66.3643 101.444 65.8099 96.7297 64.9863C100.192 62.2275 113.088 51.2943 117.41 38.5884C122.421 23.856 132.756 16.3823 132.756 16.3823C132.756 16.3823 121.155 21.0326 111.463 39.1739C103.421 54.2222 97.9933 62.5305 96.37 64.9272C90.1846 63.8234 84.2813 62.2556 78.6838 60.3349C81.9158 58.2284 91.6057 51.2231 97.3977 39.7191C104.429 25.7572 117.417 12.0405 117.417 12.0405C117.417 12.0405 97.1345 25.1663 86.8449 41.2569C79.4236 52.8612 77.9014 57.9981 77.6291 59.9665C71.2723 57.7328 65.3116 55.0582 59.7818 52.1558C62.7818 50.7259 72.4536 45.4648 81.639 33.3381C92.6914 18.7511 101.213 7.444 101.213 7.444C101.213 7.444 65.4837 34.6537 59.0997 51.8006C53.6208 48.8783 48.576 45.7342 43.9956 42.5454C46.748 41.5992 54.9566 38.0823 61.2454 28.3124C68.908 16.4059 74.0674 12.8824 81.5064 9.0891C81.5064 9.0891 64.8819 14.3236 58.7317 22.5078C51.54 32.0818 48.5474 39.6249 43.8282 42.4278C40.7693 40.2972 37.926 38.1494 35.2986 36.0539C14.2106 19.1811 2.24244 1.3288 2.11776 1.14914C1.87768 0.792482 1.40006 0.689507 1.03929 0.917584C0.995127 0.949459 0.950954 0.981331 0.910125 1.01912C0.663296 1.27013 0.615738 1.66778 0.817222 1.98358C0.935961 2.16649 13.0162 20.1898 34.2857 37.219C37.1769 39.5343 40.1044 41.7212 43.0658 43.789C43.1039 47.423 43.2096 60.6913 42.702 69.4165C42.1107 79.6045 57.7351 99.021 57.7351 99.021C57.7351 99.021 48.0254 79.0443 49.6856 68.2724Z" fill="#E5674E"/>
</svg>
