<svg width="191" height="80" viewBox="0 0 191 80" fill="none" xmlns="http://www.w3.org/2000/svg">
<path d="M42.7733 31.3013C46.6171 32.5731 50.4548 33.8366 54.2987 35.1084C57.3376 46.7207 60.3748 58.3391 63.4137 69.9514C63.8726 70.0771 64.3333 70.1968 64.7941 70.3165C61.7639 58.7329 58.7337 47.1493 55.7017 35.5718C59.3327 36.7691 62.9699 37.9748 66.6008 39.1721C69.7246 50.2714 72.2467 61.4005 74.1326 72.5297C74.5747 72.6244 75.0169 72.719 75.4509 72.8114C73.5808 61.7457 71.1021 50.675 68.0199 39.6401C71.5084 40.7898 75.003 41.9478 78.4915 43.0975C80.8855 53.6391 83.2778 64.1867 85.6718 74.7283C86.1194 74.8049 86.5589 74.8792 87.0083 74.9497C84.6344 64.486 82.2604 54.0223 79.8865 43.5586C83.5477 44.7712 87.2028 45.9755 90.864 47.1881C94.1516 56.991 96.9474 66.8356 99.2388 76.7052C99.6757 76.7591 100.121 76.8152 100.558 76.8691C98.3032 67.1084 95.5542 57.369 92.3214 47.6737C96.0868 48.9164 99.8604 50.1613 103.624 51.41C106.432 60.2292 108.768 69.0826 110.621 77.9476C111.054 77.9871 111.495 78.0289 111.927 78.0684C110.107 69.3244 107.814 60.5882 105.065 51.891C108.132 52.9061 111.201 53.9153 114.268 54.9304C117.204 62.8622 119.684 70.8329 121.72 78.8328C122.156 78.8602 122.592 78.8876 123.026 78.921C121.037 71.0588 118.606 63.2138 115.742 55.4206C119.483 56.6563 123.225 57.8921 126.966 59.1278C130.262 65.8065 132.677 72.6313 134.19 79.5037C134.62 79.5228 135.051 79.5358 135.481 79.5549C134.018 72.8406 131.683 66.1832 128.528 59.6434C129.804 60.0638 131.073 60.4819 132.347 60.9083C132.513 61.0542 132.752 61.156 133.014 61.1266C133.933 61.4309 134.86 61.7375 135.78 62.0418C139.107 67.779 141.156 73.7642 141.852 79.759C142.284 79.772 142.709 79.7767 143.141 79.7898C142.453 73.974 140.531 68.1701 137.428 62.5889C140.234 63.5157 143.032 64.4402 145.838 65.367C148.106 70.1632 149.929 75.0211 151.313 79.9165C151.748 79.9175 152.174 79.9222 152.608 79.9292C151.278 75.2003 149.534 70.5158 147.384 65.878C149.991 66.741 152.598 67.604 155.2 68.4586C156.086 71.7359 156.979 75.0214 157.866 78.2987C158.017 78.8403 158.157 79.3855 158.308 79.9271C158.735 79.9258 159.163 79.9245 159.582 79.9208C159.363 79.1168 159.161 78.3114 158.947 77.5157C158.172 74.6507 157.394 71.7917 156.619 68.9266C158.823 69.6536 161.026 70.3806 163.23 71.1076C164.655 73.9892 165.914 76.8956 167.03 79.8192C167.467 79.8141 167.898 79.8007 168.319 79.7911C167.281 77.0469 166.112 74.3306 164.8 71.6256C167.375 72.4793 169.944 73.3247 172.52 74.1785C173.329 75.9781 174.028 77.7923 174.629 79.6172C175.06 79.6038 175.491 79.5904 175.906 79.5724C175.372 77.9306 174.747 76.3019 174.049 74.6849C175.603 75.1982 177.156 75.7116 178.71 76.2249C179.193 77.2819 179.675 78.3449 180.167 79.4042C180.607 79.3871 181.032 79.3654 181.447 79.3473C181.047 78.4781 180.656 77.6052 180.256 76.7359C182.578 77.5036 184.892 78.269 187.215 79.0367C189.235 78.898 190.326 78.8061 190.326 78.8061C190.326 78.8061 189.558 78.113 188.113 76.8639C185.53 76.0079 182.945 75.1579 180.353 74.2995C181.613 74.053 182.818 73.7254 183.98 73.3393C183.66 73.0702 183.334 72.7926 182.984 72.5082C181.471 72.9897 179.871 73.3543 178.196 73.5924C176.389 72.9931 174.589 72.402 172.782 71.8027C175.228 71.3213 177.569 70.6656 179.777 69.8468C179.447 69.5813 179.119 69.3098 178.785 69.03C176.438 69.8805 173.937 70.5428 171.318 70.9938C171.143 71.0223 171.024 71.0994 170.953 71.1903C167.631 70.0952 164.311 68.994 160.989 67.8989C165.051 66.8279 169.035 65.6364 172.951 64.3266C172.613 64.0589 172.269 63.7828 171.916 63.5104C167.732 64.9002 163.467 66.155 159.103 67.2764C156.114 66.2905 153.125 65.3045 150.146 64.3148C155.686 62.7651 161.154 61.1033 166.549 59.3353C166.196 59.0629 165.848 58.7989 165.486 58.5242C159.839 60.3768 154.106 62.1066 148.29 63.7076C144.629 62.4949 140.966 61.2884 137.312 60.0781C144.77 58.2358 152.091 56.1511 159.271 53.8421C158.907 53.5734 158.544 53.3048 158.18 53.0361C150.734 55.4191 143.136 57.5551 135.379 59.4357C132.963 58.6342 130.552 57.8411 128.143 57.0419C135.653 53.8973 143.155 50.7503 150.665 47.6057C150.305 47.3514 149.946 47.0971 149.579 46.8405C141.889 50.0642 134.2 53.2818 126.518 56.5078C121.841 54.9631 117.156 53.4162 112.479 51.8715C123.045 49.2277 133.331 46.0966 143.302 42.5077C142.926 42.2488 142.541 41.9936 142.158 41.7324C131.941 45.3879 121.398 48.5627 110.552 51.2375C106.265 49.8181 101.976 48.4048 97.6961 46.9878C108.566 42.6685 119.437 38.3491 130.309 34.0237C129.912 33.7783 129.524 33.5352 129.127 33.2897C118.097 37.6746 107.066 42.0656 96.0365 46.4504C94.4045 45.908 92.7707 45.3715 91.1388 44.829C89.1496 44.1704 87.1604 43.5119 85.1774 42.8617C96.9247 37.9168 108.662 32.9756 120.409 28.0307C120.001 27.795 119.601 27.5616 119.192 27.3259C107.315 32.3252 95.4384 37.3245 83.5517 42.3275C80.4846 41.3124 77.4157 40.3033 74.3486 39.2882C85.5636 33.246 96.7883 27.2 108.003 21.1579C107.589 20.9403 107.176 20.7227 106.76 20.5111C95.5138 26.5705 84.2675 32.6299 73.0213 38.6893C72.9586 38.7236 72.912 38.7626 72.8814 38.8063C68.4977 37.3592 64.114 35.9121 59.7321 34.459C72.16 28.2093 84.5798 21.9573 97.0076 15.7075C96.5643 15.5011 96.121 15.2947 95.6759 15.0943C83.1854 21.3784 70.6851 27.6662 58.1946 33.9503C54.9128 32.8667 51.631 31.7832 48.3413 30.6973C59.3106 23.5028 70.2701 16.312 81.2394 9.11755C80.7772 8.945 80.3051 8.77616 79.8411 8.60963C68.8601 15.8139 57.8791 23.0181 46.8999 30.2163C43.4035 29.0643 39.9088 27.9063 36.4123 26.7542C45.7962 18.834 55.8262 11.4016 66.4416 4.48524C65.9168 4.34706 65.3901 4.21492 64.8714 4.08508C54.3292 10.9898 44.3823 18.4068 35.0574 26.3047C29.3811 24.4326 23.7147 22.5568 18.0384 20.6848C26.4194 13.5767 35.2821 6.83684 44.5873 0.480143C43.9531 0.415345 43.3332 0.361202 42.7133 0.307059C33.6453 6.54202 25.0055 13.1495 16.8269 20.1062C16.7785 20.1512 16.7479 20.1948 16.7155 20.2445C14.329 19.4583 11.9443 18.6661 9.55781 17.8799C15.8803 11.935 22.2089 5.99857 28.5314 0.053754C27.8762 0.0877642 27.2371 0.126402 26.5943 0.177097C20.4692 5.92972 14.3441 11.6823 8.21711 17.441C5.85466 16.6617 3.4922 15.8825 1.13157 15.0972C0.819935 15.8136 0.556408 16.5438 0.341002 17.288C0.999321 17.5039 1.64962 17.7176 2.30612 17.9396C3.76944 25.2633 5.23456 32.5811 6.69786 39.9048C7.20892 40.465 7.74766 41.0202 8.30789 41.5618C6.76368 33.8411 5.2213 26.1144 3.6771 18.3937C5.78476 19.093 7.90223 19.7885 10.0099 20.4878C11.9384 29.6236 13.8669 38.7594 15.7856 47.899C16.2833 48.2718 16.7891 48.647 17.3047 49.0185C15.3301 39.6597 13.3555 30.3008 11.3889 20.9443C14.6626 22.0255 17.9364 23.1068 21.2101 24.188C23.1598 34.5557 25.1175 44.9256 27.0672 55.2932C27.5361 55.5595 28.013 55.828 28.4979 56.0989C26.5229 45.6125 24.548 35.1262 22.5731 24.6399C25.4273 25.5805 28.2876 26.5295 31.1418 27.4702C31.222 27.4933 31.3004 27.5225 31.3788 27.5516C34.1486 38.5817 36.2053 49.6356 37.5358 60.6703C37.9871 60.879 38.4403 61.0817 38.8916 61.2905C37.5757 50.2076 35.5353 39.0994 32.772 28.0187C33.1372 28.1371 33.5087 28.2638 33.8739 28.3822C33.9487 28.4234 34.0289 28.4465 34.1047 28.4553C36.4992 29.2438 38.8919 30.0383 41.2864 30.8268C45.3357 42.5862 48.6867 54.4065 51.3229 66.2566C51.7887 66.4171 52.2546 66.5776 52.7205 66.7381C50.1299 54.8814 46.7966 43.0597 42.7733 31.3013Z" fill="#97C9CE"/>
</svg>
